<svg width="24" height="20" viewBox="0 0 24 20" fill="none" xmlns="http://www.w3.org/2000/svg">
<path d="M23.5586 9.43739H20.1857C20.1382 9.43739 20.092 9.44709 20.0483 9.46163C19.7662 4.19741 15.3816 0 10.0314 0C4.5001 0 0 4.48599 0 10C0 15.514 4.5001 20 10.0314 20C15.0361 20 19.1969 16.3261 19.9437 11.5419C20.013 11.5879 20.0957 11.6146 20.1856 11.6146H23.5586C23.8018 11.6146 24 11.417 24 11.1746V9.87643C24 9.63523 23.8018 9.43739 23.5586 9.43739ZM10.0316 19.6894C4.67174 19.6894 0.311402 15.3427 0.311402 9.99965C0.311402 4.65662 4.67174 0.30995 10.0316 0.30995C15.3391 0.30995 19.664 4.57283 19.748 9.8445C19.7468 9.85541 19.7444 9.86632 19.7444 9.87723V10.2857C19.5924 15.4966 15.2952 19.6894 10.0316 19.6894Z" fill="#562622"/>
<path d="M10.0316 1.44223C5.31268 1.44223 1.48743 5.25549 1.48743 9.95962C1.48743 14.6638 5.31268 18.477 10.0316 18.477C14.7505 18.477 18.5745 14.6638 18.5745 9.95962C18.5758 5.25549 14.7505 1.44223 10.0316 1.44223ZM8.17367 4.54159C9.00658 4.54159 9.72154 5.0143 10.0316 5.69186C10.3417 5.0143 11.0566 4.54159 11.8895 4.54159C13.007 4.54159 13.9116 5.3937 13.9116 6.44459C13.9116 6.84093 13.7827 7.21065 13.5602 7.51487H13.559C13.4362 7.68456 11.1454 10.9899 10.0304 10.9874C8.9385 10.985 6.59921 7.66133 6.45073 7.43481L6.441 7.42633L6.44465 7.42512C6.41182 7.37421 6.37778 7.3233 6.34981 7.26875C6.22214 7.01906 6.1504 6.74028 6.1504 6.44454C6.15162 5.39365 7.05747 4.54159 8.17367 4.54159ZM4.92365 7.82517C5.18021 10.0506 7.52451 10.0373 8.98111 11.133C9.49301 11.5184 9.83469 12.1378 10.0317 12.739C10.2286 12.139 10.5703 11.5196 11.0822 11.133C12.5389 10.0372 14.8819 10.0517 15.1397 7.82517C15.1397 7.82517 15.6102 8.99484 14.4101 10.2118C13.21 11.4312 10.8719 12.1402 10.2895 13.6481C10.2299 13.802 10.101 13.8311 10.0317 13.8287C9.96238 13.8311 9.82012 13.8068 9.77392 13.6481C9.38118 12.3014 6.85329 11.4311 5.65327 10.2118C4.45315 8.99484 4.92365 7.82517 4.92365 7.82517ZM15.6651 12.7608C14.1221 13.9802 11.1809 14.7268 10.3638 16.8176C10.3018 16.9752 10.1218 17.0007 10.0319 16.9982C9.94188 17.0007 9.76192 16.9752 9.69991 16.8176C8.88281 14.7267 5.94158 13.9801 4.39859 12.7608C2.85439 11.5426 3.14864 9.75355 3.14864 9.75355C3.47937 11.979 6.80611 12.5862 8.67999 13.6819C9.33902 14.0674 9.77916 14.6868 10.0321 15.288C10.285 14.688 10.7252 14.0686 11.3842 13.6819C13.2579 12.5862 16.5847 11.9801 16.9156 9.75355C16.9156 9.75234 17.2098 11.5426 15.6656 12.7608H15.6651Z" fill="#562622"/>
</svg>
