<svg width="24" height="18" viewBox="0 0 24 18" fill="none" xmlns="http://www.w3.org/2000/svg">
<path d="M8.74185 6.55352C7.47568 4.35886 8.72386 2.25009 9.94172 1.2465C11.2732 -0.0670122 13.4372 -0.52641 15.245 0.776503C15.4496 0.922233 17.2337 2.25891 17.2432 4.52798C17.2432 4.7432 17.2432 5.25085 17.0604 5.82123C16.8445 6.519 16.3862 7.11738 15.7753 7.50631C15.925 6.48427 16.1731 5.45063 16.1911 4.41228C16.1598 2.52164 14.5878 0.893539 12.7429 0.935046C11.5932 0.968825 10.8318 1.66177 10.5818 1.88858C10.2305 2.20708 9.29858 3.04864 9.27303 4.4104C9.24178 4.77522 9.40751 5.62934 9.68025 5.99028C10.1727 6.7807 11.0856 7.08953 11.5809 7.20052C11.9502 7.30475 12.2817 7.46592 12.5639 7.68017C12.8319 7.86451 13.0639 8.2303 13.3831 8.16272C13.6407 8.09516 13.7145 7.83266 13.8291 7.63578C13.903 7.77861 13.9484 7.98612 14.1388 8.00156C14.3642 8.01314 14.42 7.71491 14.511 7.53445C14.5839 7.68212 14.6293 7.84232 14.6757 8.00156C12.7495 8.52369 9.87623 8.35576 8.74163 6.55389L8.74185 6.55352ZM15.2743 9.07633C15.0707 8.6951 14.9106 7.19918 14.5025 7.21077C14.296 7.2127 14.2383 7.50223 14.1492 7.67595C14.0811 7.53601 14.0299 7.34201 13.8481 7.32561C13.6795 7.3121 13.5971 7.47809 13.5252 7.62285C13.4683 7.73963 13.4021 7.86992 13.3225 7.88922C13.1757 7.90369 12.9096 7.57557 12.7268 7.45589C11.8527 6.73494 10.7078 7.02833 9.91143 5.84028C9.01177 4.27585 9.91522 2.79048 10.7637 2.09671C11.7913 1.07852 13.4977 0.82856 14.7516 1.96449C16.2005 3.30985 16.0187 4.60021 15.6389 6.65582C15.5726 7.04668 15.5016 7.45108 15.4476 7.84965C15.4372 7.92879 15.4325 7.95967 15.4259 8.06101C15.3757 8.69701 15.3169 8.9634 15.2743 9.07633ZM13.1312 5.14153C13.1435 5.06528 13.0914 4.99386 13.0185 4.98325C12.9418 4.9707 12.8736 5.02378 12.8632 5.0981C12.8263 5.34227 12.7609 5.59801 12.7079 5.72928C12.5242 5.11547 12.4513 4.70338 12.2761 4.74583C12.2022 4.74872 12.153 4.79408 12.1293 4.88094C12.098 4.88963 12.0336 4.8877 11.9995 4.85006C11.7902 4.59625 11.6046 4.76031 11.4001 5.00255C11.366 4.99869 11.2817 4.89542 11.2315 4.78347C11.2002 4.71301 11.1197 4.68213 11.0516 4.71398C10.9834 4.74486 10.9521 4.8269 10.9834 4.89735C11.008 4.95429 11.1472 5.24577 11.3612 5.27761C11.4294 5.28726 11.5326 5.27665 11.6311 5.16083C11.7088 5.07011 11.7514 5.02861 11.7741 5.00931C11.8954 5.16276 12.1047 5.19558 12.2515 5.12995C12.2846 5.22839 12.3301 5.38861 12.3982 5.64919C12.4541 5.86537 12.5346 6.08252 12.7155 6.07385C12.7827 6.07095 12.9939 6.0603 13.1312 5.14153ZM14.0763 2.75191C14.0915 2.67663 14.0451 2.60328 13.9712 2.58784C13.8973 2.57144 13.8254 2.61969 13.8093 2.69497C13.7723 2.87255 13.7041 3.06557 13.6521 3.14663C13.4674 2.70364 13.384 2.38129 13.2183 2.41413C13.1814 2.41702 13.1217 2.43246 13.0848 2.5116C13.0412 2.52029 12.9636 2.51546 12.9276 2.48844C12.7202 2.32051 12.5838 2.4122 12.384 2.58109C12.3584 2.60329 12.3433 2.60039 12.3366 2.59943C12.2003 2.5753 12.1501 2.30122 11.9796 2.40351C11.9152 2.44501 11.8963 2.52994 11.936 2.59556C11.9512 2.62066 12.0904 2.84167 12.2921 2.87448C12.3878 2.88992 12.4806 2.86193 12.5592 2.79534C12.6681 2.70269 12.7088 2.67856 12.7174 2.67567C12.8433 2.79051 13.064 2.82622 13.2041 2.76446C13.2344 2.83298 13.2808 2.94397 13.3462 3.12831C13.3755 3.21131 13.475 3.47092 13.6653 3.45066C13.8992 3.43426 14.0233 3.00669 14.0763 2.75191ZM15.1465 5.02377C15.1521 4.84137 14.8823 4.82882 14.8737 5.01123C14.8737 5.01798 14.8481 5.57387 14.7307 6.09215C14.6531 5.74181 14.6578 5.17143 14.3652 5.31428C14.332 5.2834 14.2875 5.2226 14.2563 5.16565C14.1701 5.00545 13.9315 5.13767 14.0176 5.29884C14.064 5.38763 14.2013 5.60478 14.3671 5.60575C14.4419 5.94354 14.4996 6.6886 14.7146 6.63649C14.8538 6.64807 14.9107 6.48111 14.9296 6.40872C15.1114 5.80553 15.1446 5.05562 15.1465 5.02377ZM4.25962 16.6244C6.93587 18.4581 17.0586 18.459 19.7348 16.6244C17.1996 17.2024 14.5915 17.4042 11.9967 17.4119C9.4029 17.4042 6.79478 17.2025 4.25962 16.6244ZM20.2793 16.2016C17.6581 16.9264 13.6237 17.2536 10.2788 17.0992C8.05998 17.0181 5.52005 16.6948 3.71802 16.2016C-0.825719 15.0097 -1.41581 12.9868 3.12235 11.5951C3.62427 13.616 5.73048 14.3832 7.58657 14.446C9.16808 14.5058 10.9249 14.307 12.1407 13.1749C13.2232 14.1922 14.7678 14.4508 16.1921 14.4576C18.7927 14.4093 20.4784 13.6787 21.1383 11.68C25.4784 13.1084 24.6327 15.059 20.2793 16.2016ZM21.5862 14.3612C17.6818 16.6012 6.30035 16.5983 2.40901 14.3612C3.79448 15.2838 5.46419 15.6361 7.073 15.9256C9.51433 16.3252 12.0032 16.3898 14.4673 16.2171C16.1094 16.0887 17.7516 15.8503 19.334 15.3765C20.1209 15.1304 20.9062 14.836 21.5862 14.3612ZM17.281 6.02363C17.9951 6.17805 18.5462 6.47626 18.8881 6.70596C19.1059 6.85073 21.0151 8.1874 21.0246 10.4545C21.0246 10.6369 21.0246 11.0162 20.9119 11.4698C20.821 11.8375 20.6723 12.1772 20.4715 12.4754C19.0159 14.7492 13.8339 14.645 12.2372 12.8808C11.2144 11.8683 11.0392 9.85912 11.9834 8.49925C12.9105 8.57164 13.8528 8.52531 14.7496 8.26859C14.8623 8.66042 14.9153 8.97795 15.0725 9.27713C15.0734 9.27713 15.0734 9.27809 15.0734 9.27809C15.1463 9.40259 15.2477 9.44312 15.3623 9.39487C15.618 9.33117 15.6729 8.30043 15.7212 7.86228C16.4381 7.46561 17.0083 6.8102 17.281 6.02363ZM19.4478 8.47213C19.6921 8.32736 19.7726 8.0108 19.5747 7.97221C19.5008 7.95966 19.4317 8.00985 19.4175 8.08513C19.4175 8.08609 19.3985 8.1855 19.3209 8.227C19.1618 8.31096 19.2896 8.55415 19.4478 8.47213ZM18.1949 7.32751C18.2043 7.34971 18.2943 7.54562 18.5112 7.59676C18.5832 7.61221 18.658 7.56781 18.675 7.49253C18.6911 7.41725 18.6447 7.34294 18.5727 7.32557C18.4884 7.30627 18.4458 7.21844 18.443 7.21458C18.3701 7.04955 18.1238 7.16248 18.1949 7.32751ZM18.0661 8.44801C18.067 8.44801 18.1475 8.3901 18.2328 8.41423C18.3047 8.43643 18.3795 8.393 18.4013 8.31965C18.4222 8.2463 18.3805 8.17006 18.3085 8.14786C18.0945 8.08513 17.9231 8.2106 17.9032 8.22411C17.764 8.33316 17.925 8.55416 18.0661 8.44801ZM16.7308 8.32062C16.798 8.3515 16.8795 8.32255 16.9117 8.2521C16.9117 8.25113 16.9571 8.16138 17.0414 8.144C17.2157 8.10443 17.1569 7.83421 16.9827 7.8728C16.7071 7.94808 16.5499 8.227 16.7308 8.32062ZM3.35316 11.3897C2.66469 8.7221 5.36083 5.44845 8.04382 5.5285C8.4122 7.34678 9.97194 8.26651 11.6794 8.46812C10.7816 9.86753 10.9559 11.8431 11.8896 12.9008C11.9086 12.9259 11.9275 12.951 11.9483 12.9731C10.9208 13.9421 9.44156 14.1699 8.08925 14.1795C6.24256 14.1554 3.91377 13.7317 3.35326 11.3894L3.35316 11.3897ZM8.47075 8.02735C8.4878 8.10263 8.5645 8.14895 8.63553 8.13062C8.8505 8.07754 8.93952 7.88162 8.949 7.85845C9.01624 7.69341 8.77191 7.58531 8.69803 7.74842C8.69803 7.74842 8.65542 7.84011 8.57113 7.86134C8.49726 7.87871 8.45275 7.954 8.47075 8.02735ZM7.92905 7.40775C8.01334 7.42416 8.05879 7.51198 8.06163 7.51488C8.09383 7.58437 8.17622 7.61428 8.24156 7.5805C8.42339 7.48592 8.26145 7.20798 7.98492 7.13558C7.91011 7.12014 7.83908 7.16743 7.82298 7.24271C7.80783 7.31895 7.85518 7.39134 7.92905 7.40775ZM6.66099 7.42416C6.49336 7.47724 6.56818 7.74265 6.73959 7.69052C6.82293 7.66543 6.90153 7.71851 6.90626 7.72141C6.96687 7.7658 7.05021 7.75326 7.09567 7.69052C7.2112 7.5197 6.93942 7.35562 6.66099 7.42416ZM6.42329 6.87888C6.69886 6.83448 6.89301 6.5131 6.69886 6.42334C6.63068 6.39149 6.55018 6.42334 6.51893 6.49282C6.51893 6.49282 6.47631 6.58451 6.39108 6.60574C6.23672 6.64242 6.26514 6.87984 6.42329 6.87888ZM5.28498 7.4203C5.28876 7.4454 5.32948 7.65676 5.52741 7.75906C5.59181 7.7938 5.67514 7.76775 5.71019 7.69922C5.74428 7.6307 5.71871 7.5477 5.65147 7.51199C5.57476 7.47339 5.55487 7.37688 5.55298 7.37302C5.52078 7.19544 5.25562 7.24272 5.28498 7.4203Z" fill="#562622"/>
</svg>
