<svg width="24" height="24" viewBox="0 0 24 24" fill="none" xmlns="http://www.w3.org/2000/svg">
<path d="M23.9841 23.637C23.9283 23.8154 23.7577 23.934 23.5706 23.9257L0.467389 24C0.284407 24 0.123131 23.8793 0.0714451 23.704C0.0197562 23.5287 0.0900534 23.34 0.244087 23.241L7.24489 18.7571C7.64909 18.5023 8.16394 18.5023 8.56814 18.7571L11.5785 20.5969V15.6755H2.35706C2.07174 15.6755 1.79364 15.5816 1.56723 15.4074L0.487963 14.5823C0.180915 14.3534 0 13.9935 0 13.6109C0 13.2283 0.180913 12.8683 0.487963 12.6394L1.56723 11.8144C1.79467 11.6432 2.07171 11.5504 2.35706 11.5504H11.5785V4.12512V4.08387C10.5385 3.87246 9.82833 2.90924 9.93483 1.85527C10.0413 0.802322 10.9304 0 11.9921 0C13.0538 0 13.9428 0.802348 14.0493 1.85527C14.1558 2.90924 13.4456 3.87245 12.4056 4.08387V4.12512V5.77517H21.6271C21.9124 5.77517 22.1894 5.86799 22.4169 6.03918L23.4962 6.86421C23.8032 7.09315 23.9841 7.45308 23.9841 7.83568C23.9841 8.21828 23.8032 8.57821 23.4962 8.80715L22.4169 9.63218C22.1905 9.80647 21.9124 9.90031 21.6271 9.90031H12.4056V21.1043L13.795 21.9582L13.8487 21.9211L17.525 19.7224C17.9427 19.4718 18.4678 19.4883 18.8689 19.7636L23.8063 23.1752C23.9613 23.2731 24.0348 23.4606 23.9841 23.637Z" fill="#562622"/>
</svg>
