<svg width="13" height="24" viewBox="0 0 13 24" fill="none" xmlns="http://www.w3.org/2000/svg">
<path d="M8.7883 14.6629C8.72267 14.6494 8.71055 14.5609 8.76912 14.5265C11.24 13.1026 13 9.58407 13 6.70501C13 3.00199 10.0898 0 6.5 0C2.9102 0 0 3.00199 0 6.70501C0 9.58407 1.76003 13.1026 4.23088 14.5265C4.28945 14.5609 4.27834 14.6494 4.2117 14.6629C3.53313 14.8056 2.99292 15.3619 2.87072 16.091C2.79297 16.5556 2.89496 17.0243 3.15851 17.4097C3.35037 17.6909 3.57152 17.8399 3.64018 17.8847C3.77044 17.969 4.08043 18.1409 4.50251 18.1399C4.9044 18.1388 5.19017 17.9826 5.32446 17.9076C5.76877 17.6576 6.01414 17.2784 6.13631 17.0357C6.15449 16.9993 6.208 17.0149 6.208 17.0555C6.208 17.6326 6.05654 18.0097 5.90708 18.2544C5.63243 18.7044 5.35474 18.7294 5.05382 19.3106C4.84581 19.7127 4.78421 20.0835 4.75797 20.271C4.62872 21.1887 4.98719 21.7199 5.30325 22.1876C5.58802 22.6094 5.81319 22.9438 5.73037 23.5656C5.70614 23.7469 5.8061 23.9292 5.97474 23.9833C6.01109 23.9948 6.04542 24 6.07975 24C6.25343 24 6.40489 23.8688 6.43116 23.6865C6.56041 22.7688 6.20194 22.2376 5.88588 21.7699C5.59909 21.3449 5.3719 21.0085 5.46077 20.3772C5.47794 20.2533 5.51025 19.9658 5.66878 19.6804C5.83539 19.3815 6.05956 19.2231 6.13832 19.1617C6.41097 18.9471 6.72701 18.4669 6.88958 17.2836C6.89463 17.2461 6.94108 17.2357 6.95925 17.2691C7.26219 17.819 7.82464 18.1607 8.43857 18.1607C8.53652 18.1607 8.63447 18.1524 8.73342 18.1346C9.18378 18.0544 9.57758 17.7972 9.84115 17.4118C10.1047 17.0264 10.2067 16.5577 10.1289 16.0931C10.0068 15.364 9.46653 14.8077 8.78796 14.665L8.7883 14.6629ZM5.98926 15.6244L5.61061 16.7254C5.43794 17.2274 4.96234 17.5753 4.44937 17.5201C4.12725 17.4857 3.84453 17.3149 3.65973 17.0451C3.40829 16.6764 3.38507 16.19 3.63347 15.7681C3.82634 15.441 4.18682 15.2577 4.55842 15.2577H4.56044L5.74085 15.2598C5.92362 15.2598 6.05085 15.4473 5.99027 15.6244L5.98926 15.6244ZM9.34072 17.0451C9.15694 17.3149 8.8732 17.4868 8.55108 17.5201C8.03811 17.5742 7.56252 17.2263 7.38984 16.7253L7.01119 15.6243C6.94959 15.4462 7.07783 15.2598 7.2606 15.2598L8.44102 15.2577H8.44304C8.81463 15.2577 9.17511 15.44 9.36798 15.767C9.61638 16.1889 9.59417 16.6764 9.34173 17.0451L9.34072 17.0451Z" fill="#562622"/>
</svg>
