<svg width="24" height="27" viewBox="0 0 24 27" fill="none" xmlns="http://www.w3.org/2000/svg">
<path d="M9.42728 23.2073C9.17379 23.2073 8.97076 23.4157 8.97076 23.6729C8.97076 23.9301 9.17838 24.1384 9.43186 24.1384C9.68535 24.1384 9.89067 23.9301 9.89067 23.6729C9.89067 23.4157 9.68536 23.2073 9.43186 23.2073H9.42728Z" fill="#562622"/>
<path d="M7.55327 19.277C7.29978 19.277 7.09676 19.4854 7.09676 19.7426C7.09676 19.9998 7.30437 20.2081 7.55786 20.2081C7.81134 20.2081 8.01667 19.9998 8.01667 19.7426C8.01667 19.4854 7.81135 19.277 7.55786 19.277H7.55327Z" fill="#562622"/>
<path d="M2.71736 26.069H2.71277C2.45928 26.069 2.25625 26.2773 2.25625 26.5345C2.25625 26.7917 2.46386 27 2.71735 27C2.97084 27 3.17616 26.7917 3.17616 26.5345C3.17616 26.2773 2.97085 26.069 2.71736 26.069Z" fill="#562622"/>
<path d="M4.86563 22.1178H4.86104C4.60755 22.1178 4.40452 22.3261 4.40452 22.5833C4.40452 22.8405 4.61213 23.0488 4.86562 23.0488C5.11911 23.0488 5.32443 22.8405 5.32443 22.5833C5.32443 22.3261 5.11912 22.1178 4.86563 22.1178Z" fill="#562622"/>
<path d="M0.461107 22.1178H0.456519C0.203027 22.1178 0 22.3261 0 22.5833C0 22.8405 0.207611 23.0488 0.4611 23.0488C0.714588 23.0488 0.919909 22.8405 0.919909 22.5833C0.919909 22.3261 0.714599 22.1178 0.461107 22.1178Z" fill="#562622"/>
<path d="M3.48229 17.7233H3.47771C3.22421 17.7233 3.02119 17.9316 3.02119 18.1888C3.02119 18.446 3.2288 18.6544 3.48229 18.6544C3.73578 18.6544 3.9411 18.446 3.9411 18.1888C3.9411 17.9316 3.73579 17.7233 3.48229 17.7233Z" fill="#562622"/>
<path d="M6.44157 26.2015C6.44157 26.4587 6.64918 26.6671 6.90267 26.6671C7.15615 26.6671 7.36147 26.4587 7.36147 26.2015C7.36147 25.9443 7.15616 25.736 6.90267 25.736H6.89808C6.64459 25.736 6.44157 25.9443 6.44157 26.2015Z" fill="#562622"/>
<path d="M17.6917 0.330525C17.4818 0.117552 17.2031 0 16.9163 0C16.8854 0 16.8533 0.00116372 16.8223 0.00465517C16.5172 0.0325862 16.2557 0.185044 16.0836 0.436417L10.3474 8.80649C10.0583 9.2278 10.1191 9.80852 10.4919 10.1867L13.9604 13.7059C14.3331 14.0841 14.9055 14.147 15.3207 13.8525L23.5702 8.03246C23.818 7.85789 23.9682 7.59254 23.9957 7.28299C24.0244 6.9583 23.9074 6.63591 23.6746 6.39968L17.694 0.331721L17.6917 0.330525Z" fill="#562622"/>
<path d="M9.36209 11.7763L10.0618 11.0664L13.0909 14.1399L12.3913 14.8498L9.36209 11.7763Z" fill="#562622"/>
<path d="M11.8419 17.2159L12.6344 16.4129L7.8226 11.5307L7.03001 12.3349C6.5712 12.8004 6.5712 13.5592 7.03001 14.0247L10.1763 17.2171C10.6214 17.6686 11.3968 17.6686 11.8418 17.2171L11.8419 17.2159Z" fill="#562622"/>
</svg>
