<svg width="15" height="24" viewBox="0 0 15 24" fill="none" xmlns="http://www.w3.org/2000/svg">
<path d="M14.5682 21.1841H11.2901C11.2461 21.1841 11.2106 21.1497 11.2106 21.107V9.90418C11.2106 9.54165 10.9078 9.24894 10.5353 9.24894H7.88856C7.84453 9.24894 7.8091 9.21456 7.8091 9.17185V8.31764C7.8091 8.28014 7.83809 8.24889 7.87674 8.24368C8.0174 8.22597 8.1559 8.19888 8.29334 8.16242C8.42755 8.127 8.9043 7.98533 9.39068 7.60511C9.39068 7.60511 10.3184 6.87901 10.6222 5.5529C10.969 4.04134 9.55497 1.60278 6.91698 0.0400169C6.73337 -0.0683232 6.49392 0.055643 6.49285 0.263988C6.48426 2.27766 4.57518 2.65371 4.57518 5.55712C4.57518 6.08633 4.89516 7.55413 6.45956 8.10312C6.6743 8.17917 6.89765 8.22709 7.1242 8.25105C7.16393 8.25521 7.19292 8.28647 7.19292 8.32501V9.1709C7.19292 9.21362 7.15749 9.24799 7.11346 9.24799H4.46568C4.09202 9.24799 3.79032 9.54177 3.79032 9.90323V21.1061C3.79032 21.1488 3.75489 21.1832 3.71087 21.1832H0.432753C0.20083 21.1832 0.00219355 21.3623 4.95573e-05 21.5873C-0.00854017 22.9187 1.10061 24 2.47068 24H12.5293C13.8994 24 15.0085 22.9187 15 21.5873C14.9989 21.3623 14.8002 21.1832 14.5672 21.1832L14.5682 21.1841Z" fill="#562622"/>
</svg>
