<svg width="24" height="24" viewBox="0 0 24 24" fill="none" xmlns="http://www.w3.org/2000/svg">
<path d="M9.51539 7.84956L6.19298 4.57579L8.28409 2.51334L11.6065 5.77885L9.51539 7.84956ZM12.3696 18.0066L15.6941 21.2972L17.7852 19.2347L14.4617 15.937L12.3696 18.0066ZM2.48746 8.22555L5.81095 11.5151L7.90206 9.44533L4.57129 6.15582L2.48746 8.22555ZM7.4242 13.1129L10.756 16.4107L12.8398 14.3409L9.51523 11.0504L7.4242 13.1129ZM16.0737 14.3649L19.4056 17.6544L21.4914 15.5607L18.1669 12.2702L16.0737 14.3649ZM23.7237 16.2169L20.0182 19.8398L16.3138 23.5157C16.1485 23.6771 15.9254 23.7677 15.6939 23.7667C15.4645 23.7657 15.2445 23.6761 15.0825 23.5157L9.36794 17.8596V19.6762C9.36794 20.1543 8.97645 20.5407 8.49444 20.5407C8.01138 20.5407 7.62095 20.1533 7.62095 19.6762L7.6199 16.2168C7.61358 16.1887 7.61358 16.1585 7.6199 16.1304L6.7464 15.2658V23.1354C6.7464 23.6125 6.35492 24 5.87291 24C5.38985 24 4.99942 23.6125 4.99942 23.1354V13.6221C4.9931 13.594 4.9931 13.5638 4.99942 13.5357L4.12593 12.6711V19.6762C4.12593 20.1543 3.73444 20.5408 3.25243 20.5408C2.76937 20.5408 2.37894 20.1533 2.37894 19.6762L2.37789 11.0274C2.37368 11.0045 2.37368 10.9816 2.37789 10.9587L0.254151 8.83163C-0.0847172 8.49414 -0.0847172 7.94936 0.254151 7.61188L3.95859 3.94531L7.6377 0.251553C7.97867 -0.0838509 8.52909 -0.0838509 8.87006 0.251553L23.7236 14.9533C23.7373 14.9658 23.751 14.9793 23.7647 14.9939C24.0941 15.3428 24.0752 15.8899 23.7237 16.2169ZM13.0304 6.83482L10.5668 9.28267C10.4615 9.38683 10.4615 9.55557 10.5668 9.65975L14.2712 13.3263C14.3238 13.3784 14.3933 13.4044 14.4617 13.4044C14.5301 13.4044 14.5996 13.3784 14.6522 13.3263L17.1253 10.8878C17.1758 10.8378 17.2042 10.7701 17.2042 10.6993C17.2042 10.6285 17.1758 10.5608 17.1253 10.5108L13.4114 6.83488C13.3609 6.78488 13.2925 6.75676 13.221 6.75676C13.1494 6.75676 13.0809 6.78482 13.0304 6.83482ZM5.54153 4.57654C5.54153 4.64737 5.56995 4.71507 5.62152 4.76507L9.32596 8.4151C9.37858 8.46718 9.44698 8.49218 9.51539 8.49218C9.58484 8.49218 9.65325 8.46614 9.70587 8.41406L12.179 5.96621C12.2295 5.91621 12.2579 5.8485 12.2579 5.77663C12.2579 5.7058 12.2295 5.63809 12.178 5.58809L8.47352 1.94873C8.36828 1.84561 8.19885 1.84561 8.09359 1.94873L5.62045 4.38719C5.56994 4.43719 5.54153 4.5057 5.54153 4.57654ZM8.47464 9.63372C8.52516 9.58373 8.55357 9.51602 8.55357 9.44519C8.55357 9.37436 8.52516 9.30665 8.47464 9.25665L4.76077 5.58902C4.71026 5.53903 4.64185 5.5109 4.57029 5.5109C4.49873 5.5109 4.43032 5.53903 4.37981 5.58902L1.91615 8.03687C1.81091 8.14104 1.81091 8.30977 1.91615 8.41396L5.62059 12.0805C5.67321 12.1326 5.74267 12.1586 5.81107 12.1586C5.88053 12.1586 5.94894 12.1326 6.00156 12.0805L8.47464 9.63372ZM10.9478 16.9751L13.4114 14.5273C13.5167 14.4231 13.5167 14.2544 13.4114 14.1502L9.70699 10.4847C9.60176 10.3805 9.43128 10.3805 9.32602 10.4847L6.85288 12.9231C6.80236 12.9731 6.77395 13.0409 6.77395 13.1117C6.77395 13.1825 6.80236 13.2502 6.85288 13.3002L10.5667 16.9761C10.6173 17.0261 10.6857 17.0542 10.7572 17.0542C10.8288 17.0542 10.8973 17.0262 10.9478 16.9751ZM18.4356 19.2355C18.4356 19.1646 18.4072 19.0969 18.3567 19.0469L14.6522 15.371C14.6017 15.321 14.5333 15.2929 14.4617 15.2929C14.3902 15.2929 14.3218 15.321 14.2713 15.371L11.7981 17.8189C11.7476 17.8689 11.7192 17.9366 11.7192 18.0074C11.7192 18.0783 11.7476 18.146 11.7981 18.196L15.5026 21.8625C15.5552 21.9146 15.6246 21.9407 15.693 21.9407C15.7615 21.9407 15.8309 21.9146 15.8835 21.8625L18.3567 19.4241C18.4072 19.3741 18.4356 19.3063 18.4356 19.2355ZM22.0611 15.3711L18.3567 11.7034C18.3061 11.6534 18.2388 11.6243 18.1651 11.6253C18.0936 11.6253 18.0252 11.6545 17.9746 11.7045L15.5015 14.1783C15.3973 14.2825 15.3984 14.4512 15.5026 14.5544L19.2164 18.2209C19.2669 18.2709 19.3353 18.2991 19.4069 18.2991H19.408C19.4795 18.2991 19.549 18.2699 19.5984 18.2199L22.0631 15.7471C22.1663 15.6419 22.1663 15.4742 22.0611 15.3711ZM16.5529 10.6984L13.2211 7.40168L11.1373 9.47141L14.4619 12.762L16.5529 10.6984Z" fill="#562622"/>
</svg>
