<svg width="24" height="21" viewBox="0 0 24 21" fill="none" xmlns="http://www.w3.org/2000/svg">
<path d="M21.2092 1.9497C21.23 1.93033 21.2707 1.88675 21.3115 1.84801L21.3124 1.84704C21.3143 1.84607 21.3152 1.84414 21.3171 1.84317C21.3351 1.82574 21.3522 1.81024 21.3673 1.79765C21.3844 1.78409 21.3976 1.77441 21.4052 1.77247C21.4724 1.79378 21.6097 2.08045 21.5842 2.47558C21.5747 2.65669 21.5255 2.91819 21.3522 3.14093C21.1173 3.44019 20.5832 3.7385 20.23 3.4954C19.9696 3.34529 19.8247 2.73804 20.0397 2.50464C20.0709 2.47171 20.0946 2.4659 20.1988 2.45137C20.2319 2.44944 20.2641 2.44266 20.2973 2.43782C20.3749 2.42426 20.4601 2.40295 20.5444 2.37486C20.731 2.30804 20.9109 2.20247 21.0681 2.07851C21.1183 2.03493 21.1647 1.99232 21.2092 1.9497ZM10.8314 14.6892C10.8664 14.6301 10.8901 14.5575 10.892 14.4703C10.8901 14.3822 10.8664 14.3105 10.8314 14.2505C10.8314 14.2495 10.8304 14.2486 10.8304 14.2486C10.82 14.2311 10.8077 14.2137 10.7954 14.1982C10.7887 14.1895 10.7812 14.1817 10.7736 14.174C10.766 14.1662 10.7584 14.1595 10.7509 14.1527C10.7357 14.1391 10.7187 14.1275 10.7007 14.1159L10.6997 14.1149C10.641 14.0791 10.5709 14.0549 10.4848 14.052C10.3995 14.0539 10.3285 14.0781 10.2708 14.1139L10.2698 14.1149C10.2518 14.1265 10.2357 14.1382 10.2196 14.1517C10.2111 14.1585 10.2035 14.1662 10.1959 14.174C10.1884 14.1817 10.1817 14.1895 10.1751 14.1972C10.1619 14.2127 10.1495 14.2302 10.1391 14.2486C10.1391 14.2486 10.1391 14.2495 10.1382 14.2495C10.1031 14.3096 10.0795 14.3822 10.0776 14.4703C10.0795 14.5575 10.1031 14.6301 10.1382 14.6892C10.1495 14.7076 10.1609 14.7251 10.1751 14.7415C10.1817 14.7493 10.1884 14.757 10.1959 14.7648C10.2035 14.7725 10.2111 14.7803 10.2196 14.787C10.2348 14.8006 10.2518 14.8132 10.2698 14.8238C10.2698 14.8238 10.2708 14.8238 10.2708 14.8248C10.3295 14.8606 10.3995 14.8849 10.4848 14.8868C10.5709 14.8849 10.641 14.8606 10.6997 14.8248C10.7007 14.8248 10.7007 14.8238 10.7007 14.8238C10.7187 14.8122 10.7357 14.8006 10.7509 14.787C10.7584 14.7803 10.766 14.7725 10.7736 14.7657C10.7812 14.758 10.7887 14.7502 10.7954 14.7415C10.8086 14.726 10.82 14.7086 10.8314 14.6902C10.8304 14.6902 10.8314 14.6892 10.8314 14.6892ZM14.7642 16.2988C10.9981 24.2367 0.330627 21.4405 0.00190326 13.0001C-0.0331339 11.3653 0.415717 9.84467 1.33711 8.48501C1.38257 8.41721 1.44696 8.36685 1.52271 8.3378L2.8636 7.81191C2.99428 7.75961 3.13254 7.73443 3.27079 7.73443C3.7528 7.73443 4.17325 8.11019 4.59463 8.31067C5.05484 8.56537 5.62114 8.49178 6.00465 8.12957C6.3967 7.7625 6.83325 7.34218 7.22338 6.97901C7.45159 6.76304 7.79629 6.73011 8.06143 6.89959L8.35025 7.08651C8.77732 7.3606 9.30667 7.4003 9.7688 7.19305L10.2593 6.97223C10.5207 6.8502 10.8104 6.93156 11.0301 7.10298C11.9676 7.70635 12.2091 8.09084 13.2621 7.36351L13.5746 7.1824C13.746 7.08168 13.9657 7.12332 14.0841 7.27925C14.425 7.72282 14.6949 8.18963 14.9098 8.65644C16.1248 11.5823 15.8872 13.8805 14.7642 16.2988ZM2.91023 9.49434C2.88751 8.71955 1.78714 8.71955 1.76346 9.49434C1.78808 10.2682 2.88655 10.2691 2.91023 9.49434ZM4.25965 12.8385C4.25207 12.5789 4.09393 12.5169 3.98787 12.3C3.8231 11.9959 3.81931 11.7363 3.81647 11.5281C3.84867 11.0661 3.56173 10.9121 3.13939 11.1407C2.77859 11.3324 2.38844 11.7673 2.32975 12.3029C2.27483 12.8026 2.51251 13.559 3.10341 13.6781C3.5731 13.7953 4.25114 13.3334 4.25965 12.8385ZM4.19904 15.4301C3.6981 15.4437 3.69716 16.1933 4.19904 16.2068C4.69998 16.1933 4.69809 15.4427 4.19904 15.4301ZM6.73598 10.6207C7.47081 10.5965 7.47081 9.50693 6.73598 9.48274C5.99924 9.50598 5.99924 10.5965 6.73598 10.6207ZM6.35531 18.2892C5.66972 18.3077 5.66972 19.3342 6.35531 19.3527C7.04279 19.3352 7.04279 18.3077 6.35531 18.2892ZM7.29658 12.8474C6.36952 12.8764 6.36952 14.2527 7.29658 14.2817C8.22365 14.2517 8.22365 12.8774 7.29658 12.8474ZM10.3695 17.1852C10.3108 16.6496 9.92065 16.2157 9.55988 16.023C9.13659 15.7974 8.84871 15.9504 8.8828 16.4124C8.87996 16.6215 8.87617 16.8801 8.7114 17.1842C8.60534 17.4002 8.44529 17.4651 8.43962 17.7218C8.44814 18.2167 9.12616 18.6796 9.59774 18.5634C10.1858 18.4423 10.4235 17.6849 10.3695 17.1852ZM10.4841 13.7655C9.57502 13.7945 9.57313 15.1465 10.4841 15.1756C11.396 15.1456 11.3951 13.7955 10.4841 13.7655ZM12.2151 9.49434C12.0437 9.44204 11.9178 9.56504 11.7871 9.69579C11.6375 9.8798 11.2256 10.151 10.8913 10.1626C10.1584 10.2052 10.3042 11.4449 10.8013 11.7315C11.2909 12.0724 11.9907 11.716 12.3004 11.3199C12.6962 10.8386 12.736 9.74227 12.2151 9.49434ZM2.14519 9.71903C2.19254 9.76164 2.25504 9.7907 2.33742 9.79167C2.41886 9.78973 2.48231 9.76164 2.52966 9.71903C2.53534 9.71419 2.54007 9.70934 2.54481 9.7045C2.54954 9.69966 2.55428 9.69482 2.55806 9.68997C2.59973 9.64155 2.62814 9.57763 2.63003 9.49337C2.62909 9.40911 2.60068 9.34519 2.55901 9.29677C2.55428 9.29096 2.54954 9.28611 2.54481 9.28127C2.54007 9.27643 2.53534 9.27256 2.5306 9.26771C2.48326 9.2251 2.41981 9.19605 2.33837 9.19508C2.25599 9.19605 2.19254 9.2251 2.14614 9.26771C2.14424 9.26965 2.1414 9.27062 2.13951 9.27256C2.13667 9.27546 2.13477 9.27837 2.13193 9.28127C2.1272 9.28611 2.12246 9.29096 2.11868 9.29677C2.11394 9.30258 2.10731 9.30742 2.10258 9.3142C2.07322 9.35488 2.05428 9.40814 2.04955 9.47013C2.0486 9.47788 2.04671 9.48466 2.04671 9.49337C2.04671 9.50209 2.0486 9.50887 2.04955 9.51661C2.05523 9.58925 2.0808 9.64639 2.11868 9.68997C2.12247 9.69482 2.1272 9.69966 2.13193 9.7045C2.13478 9.70741 2.13762 9.71128 2.14046 9.71419C2.1414 9.71612 2.1433 9.71709 2.14519 9.71903ZM7.65373 13.7896C7.68972 13.7286 7.71434 13.654 7.71623 13.5639C7.71339 13.4739 7.68972 13.4003 7.65373 13.3383C7.65373 13.3373 7.65279 13.3373 7.65279 13.3363C7.64142 13.3179 7.62911 13.3005 7.61586 13.284C7.60923 13.2753 7.60165 13.2676 7.59408 13.2589C7.5865 13.2511 7.57892 13.2434 7.5704 13.2366C7.5543 13.223 7.53726 13.2104 7.51927 13.1988L7.51832 13.1978C7.45866 13.161 7.38574 13.1359 7.29768 13.1339C7.20961 13.1359 7.13669 13.161 7.07703 13.1978C7.07609 13.1978 7.07609 13.1988 7.07514 13.1988C7.05715 13.2104 7.0401 13.2221 7.024 13.2366C7.01548 13.2434 7.00791 13.2511 6.99938 13.2589C6.99181 13.2666 6.98423 13.2743 6.9776 13.2831C6.9634 13.2995 6.95203 13.317 6.94067 13.3363C6.94067 13.3363 6.94067 13.3373 6.93973 13.3373C6.90374 13.3983 6.87912 13.4729 6.87723 13.563C6.87912 13.653 6.90374 13.7276 6.93973 13.7896C6.93973 13.7896 6.93973 13.7906 6.94067 13.7906C6.95204 13.8099 6.96435 13.8274 6.9776 13.8438C6.98423 13.8525 6.99181 13.8603 6.99938 13.868C7.00696 13.8758 7.01548 13.8835 7.02306 13.8903C7.03916 13.9039 7.0562 13.9165 7.07419 13.9281C7.07514 13.9281 7.07514 13.929 7.07609 13.929C7.13669 13.9658 7.20866 13.991 7.29673 13.993C7.3848 13.9901 7.45677 13.9658 7.51737 13.929L7.51832 13.9281C7.53726 13.9165 7.5543 13.9039 7.56946 13.8903C7.57798 13.8835 7.58555 13.8758 7.59313 13.868C7.60071 13.8603 7.60828 13.8516 7.61586 13.8428C7.62911 13.8274 7.64143 13.8099 7.65279 13.7905C7.65279 13.7915 7.65373 13.7906 7.65373 13.7896ZM15.0939 16.2631C16.1479 13.991 16.7151 10.493 14.307 7.10324C14.1024 6.83691 13.7284 6.7633 13.4348 6.93279L13.1223 7.11583C12.7681 7.32502 12.3534 7.65238 11.949 7.36473C11.6545 7.17103 11.3591 6.97734 11.0627 6.78462C10.075 6.17545 9.57124 7.59913 8.40163 6.78074C9.35144 0.895322 16.4432 -2.23284 20.8929 1.85309C20.8929 1.85309 20.8919 1.85309 20.8919 1.85405C20.747 1.97511 20.5842 2.06712 20.4005 2.11942C20.176 2.19593 20.0198 2.12523 19.837 2.30246C19.4459 2.72861 19.7139 3.69708 20.2812 3.83654C20.9431 4.00409 21.659 3.46851 21.8162 2.81189C23.0245 4.27818 23.8247 6.20559 23.9714 8.03111C24.3455 12.4822 21.0274 17.4408 15.0939 16.2631ZM13.4168 3.2293C12.9187 2.88645 12.2265 3.2477 11.9178 3.64091C11.5882 4.06027 11.5627 4.65104 11.6839 5.04716C11.7701 5.30866 11.8837 5.46555 12.0825 5.47814C12.2151 5.47814 12.3202 5.37258 12.4301 5.26314C12.5769 5.11883 12.7596 4.93869 13.0863 4.84379C13.3117 4.76728 13.466 4.83797 13.6507 4.66074C13.9935 4.3121 13.8193 3.47043 13.4168 3.2293ZM15.7558 0.946581C15.2227 0.961108 15.2236 1.7601 15.7558 1.77463C16.2899 1.7601 16.2918 0.960118 15.7558 0.946581ZM16.6421 5.85093C15.8581 5.87611 15.859 7.03927 16.6421 7.06541C17.4262 7.03926 17.4281 5.8761 16.6421 5.85093ZM18.9868 12.6158C18.8041 12.4376 18.6488 12.5083 18.4234 12.4318C18.0967 12.3378 17.9139 12.1577 17.7671 12.0124C17.4698 11.6628 17.1611 11.7606 17.0209 12.2284C16.8997 12.6264 16.9253 13.2153 17.2548 13.6356C17.8334 14.3726 19.0294 14.452 19.1658 13.2782C19.1923 13.0061 19.1251 12.7581 18.9868 12.6158ZM20.1402 10.8725C19.4972 10.8899 19.4982 11.8507 20.1402 11.8681C20.7822 11.8497 20.7832 10.8909 20.1402 10.8725ZM20.5502 7.2998C20.0408 7.43539 19.6752 7.89154 19.5408 8.2838C19.3798 8.7448 19.5711 9.0121 20.0124 8.91429C20.215 8.88717 20.466 8.85424 20.7841 8.97918C20.9868 9.04988 21.0682 9.17384 21.2785 9.18256C21.5124 9.17772 21.716 9.01114 21.8731 8.75641C22.4508 7.72303 21.4442 7.06737 20.5502 7.2998ZM21.929 5.18851C21.4783 5.20013 21.4773 5.87612 21.929 5.88872C22.3807 5.87613 22.3807 5.20014 21.929 5.18851ZM18.842 12.9044C18.8373 12.8938 18.8325 12.8841 18.8269 12.8744C18.824 12.8705 18.8221 12.8657 18.8193 12.8618C18.8089 12.8453 18.7985 12.8298 18.7861 12.8173C18.7615 12.7921 18.7416 12.7824 18.6877 12.7737C18.6318 12.7611 18.5646 12.7553 18.4954 12.7446C18.4519 12.7359 18.4026 12.7252 18.3468 12.7088H18.3458C18.1536 12.6526 18.0002 12.5703 17.8761 12.4831C17.8667 12.4763 17.8562 12.4686 17.8468 12.4618L17.8458 12.4608C17.7369 12.3776 17.6489 12.2875 17.5561 12.2032C17.504 12.1509 17.4405 12.0899 17.415 12.086C17.2426 12.2817 17.1924 12.6545 17.2682 12.9955C17.2701 13.0061 17.272 13.0158 17.2748 13.0264C17.2758 13.0303 17.2767 13.0342 17.2776 13.0381C17.3004 13.1291 17.3326 13.2172 17.3742 13.2976C17.3847 13.318 17.396 13.3373 17.4074 13.3567C17.4121 13.3644 17.4159 13.3722 17.4206 13.3799C17.4244 13.3867 17.4301 13.3925 17.4339 13.3993C17.4472 13.4187 17.4595 13.4381 17.4737 13.4555C17.4936 13.4807 17.5163 13.5068 17.5409 13.532C17.5579 13.5494 17.575 13.5669 17.593 13.5833C17.7095 13.6937 17.8439 13.7799 17.9831 13.8322C18.1924 13.9165 18.4169 13.932 18.5958 13.809C18.646 13.7799 18.6914 13.7344 18.7312 13.6773C18.7966 13.5911 18.8458 13.4758 18.8714 13.3306C18.8761 13.3034 18.8827 13.2792 18.8856 13.2502C18.8884 13.2163 18.8894 13.1824 18.8884 13.1495C18.8884 13.0594 18.8742 12.9741 18.842 12.9044ZM21.7273 7.98172C21.6553 7.77446 21.466 7.64954 21.25 7.58852C21.0862 7.53913 20.9016 7.52751 20.7207 7.5585C20.6866 7.56431 20.6535 7.57012 20.6222 7.57884H20.6213C20.6146 7.58077 20.608 7.58368 20.6014 7.58562C20.5673 7.5953 20.5322 7.60789 20.4991 7.62242C20.4839 7.62823 20.4697 7.63501 20.4546 7.64179C20.4243 7.65632 20.3949 7.67278 20.3656 7.69021C20.3419 7.70474 20.3182 7.72023 20.2955 7.73573C20.286 7.74251 20.2766 7.74929 20.2671 7.75704C20.2368 7.77931 20.2084 7.80255 20.18 7.82774C20.1658 7.84033 20.1516 7.85292 20.1374 7.86551C20.1269 7.87519 20.1175 7.88584 20.1071 7.8965L20.0957 7.90812C19.9802 8.02821 19.8874 8.16768 19.8305 8.30618C19.8163 8.34201 19.8031 8.37881 19.7936 8.41465C19.7491 8.55992 19.7671 8.63062 19.7747 8.64127C19.7889 8.64708 19.8353 8.64418 19.8855 8.63933C20.0067 8.62965 20.1468 8.60253 20.2841 8.6035C20.4186 8.60447 20.5597 8.62093 20.696 8.65386C20.7832 8.67711 20.8703 8.70519 20.9498 8.73909C20.9517 8.74006 20.9536 8.74103 20.9555 8.74103C20.983 8.75265 21.0095 8.76524 21.0351 8.77783C21.071 8.79623 21.1061 8.8156 21.1392 8.83691C21.1847 8.86403 21.2131 8.87855 21.2358 8.88727C21.2585 8.89502 21.2756 8.89598 21.2983 8.89308C21.3154 8.89017 21.3334 8.88436 21.3513 8.87758C21.3551 8.87565 21.3599 8.87371 21.3637 8.87177C21.3731 8.86693 21.3835 8.86209 21.394 8.85628C21.4593 8.81947 21.5199 8.76233 21.572 8.69163C21.5919 8.66548 21.6118 8.6374 21.6288 8.60834C21.7216 8.44564 21.7585 8.2994 21.7557 8.16963C21.7604 8.0999 21.751 8.03595 21.7273 7.98172ZM3.74183 12.4395C3.54202 12.0734 3.53728 11.748 3.53444 11.5321C3.5335 11.4556 3.5316 11.349 3.51645 11.3258C3.13105 11.3442 2.66325 11.8439 2.60926 12.334C2.56665 12.7146 2.73899 13.3102 3.15755 13.3954C3.44637 13.4777 3.96435 13.1533 3.97855 12.8347C3.97855 12.7882 3.96624 12.7669 3.9009 12.6807C3.85734 12.6245 3.80243 12.5509 3.74183 12.4395ZM10.0894 17.2162C10.0884 17.2085 10.0865 17.2007 10.0856 17.1939C10.0809 17.1591 10.0733 17.1232 10.0648 17.0874C10.061 17.0709 10.0572 17.0545 10.0515 17.038C10.042 17.007 10.0307 16.976 10.0184 16.945C10.007 16.9169 9.99564 16.8908 9.98238 16.8637C9.98144 16.8617 9.98049 16.8598 9.98049 16.8588C9.97765 16.853 9.97481 16.8482 9.97197 16.8433C9.95303 16.8056 9.93219 16.7697 9.90947 16.7339C9.89148 16.7058 9.87254 16.6777 9.8536 16.6506C9.85076 16.6467 9.84886 16.6438 9.84602 16.64C9.74849 16.5092 9.63106 16.3969 9.50702 16.3194C9.48145 16.3039 9.45588 16.2894 9.43031 16.2768H9.42937C9.42937 16.2768 9.42842 16.2768 9.42842 16.2758C9.41611 16.27 9.4038 16.2642 9.39149 16.2584C9.29111 16.2119 9.24092 16.1993 9.18032 16.2099C9.16801 16.2313 9.16611 16.3368 9.16517 16.4143C9.16233 16.6293 9.15854 16.9547 8.95778 17.3218C8.89718 17.4312 8.84226 17.5048 8.79869 17.5639C8.7665 17.6065 8.74661 17.6327 8.73525 17.6549C8.72388 17.6772 8.72104 17.6946 8.72104 17.7179C8.72104 17.7189 8.72104 17.7198 8.72199 17.7218C8.73998 18.0394 9.25607 18.3581 9.543 18.2786C9.64717 18.2573 9.73713 18.2041 9.811 18.1305C9.82994 18.1121 9.84698 18.0917 9.86403 18.0714C9.89717 18.0297 9.92747 17.9833 9.95304 17.9339C9.97955 17.8845 10.0013 17.8322 10.0203 17.7789C10.0572 17.6743 10.0799 17.5639 10.0903 17.4583C10.0932 17.4273 10.096 17.3973 10.096 17.3673C10.097 17.315 10.0951 17.2637 10.0894 17.2162ZM12.2816 10.0505C12.2731 10.0214 12.2636 9.99235 12.2532 9.96524C12.203 9.81996 12.1471 9.77445 12.1348 9.77057C12.1291 9.77154 12.1197 9.77735 12.1083 9.7851C12.0752 9.81028 12.0231 9.86161 11.9824 9.90229C11.9237 9.97492 11.8157 10.0698 11.6822 10.1589C11.4615 10.3062 11.1736 10.4408 10.9274 10.4466C10.8214 10.4611 10.7996 10.4669 10.7665 10.4999C10.7542 10.5125 10.7437 10.5279 10.7333 10.5444L10.7248 10.5589C10.7201 10.5677 10.7153 10.5773 10.7106 10.587C10.6793 10.6548 10.6642 10.7352 10.6632 10.8214C10.6623 10.8572 10.6632 10.894 10.667 10.9318C10.6879 11.1187 10.7437 11.2582 10.8214 11.3599C10.8612 11.4161 10.9057 11.4616 10.9559 11.4906C11.1348 11.6127 11.3593 11.5972 11.5685 11.5139C11.7286 11.4538 11.8829 11.3492 12.0098 11.2156C12.0344 11.1904 12.0581 11.1643 12.078 11.1381C12.1045 11.1042 12.1282 11.0674 12.15 11.0287C12.1585 11.0141 12.167 10.9996 12.1746 10.9851C12.1897 10.9551 12.2039 10.925 12.2172 10.8931C12.2286 10.866 12.238 10.8398 12.2465 10.8127C12.2503 10.802 12.2532 10.7914 12.256 10.7807C12.2674 10.7439 12.2769 10.7062 12.2844 10.6684C12.2882 10.65 12.2929 10.6306 12.2967 10.6122C12.2996 10.5977 12.3005 10.5822 12.3034 10.5677C12.3043 10.5628 12.3053 10.558 12.3053 10.5531C12.3308 10.3798 12.3233 10.2015 12.2816 10.0505ZM13.5259 3.89678C13.4833 3.70792 13.4 3.57814 13.292 3.49582C13.1992 3.41447 13.0865 3.36701 12.9587 3.37767C12.8896 3.38154 12.8233 3.39413 12.7598 3.40963C12.7485 3.41253 12.7371 3.41544 12.7248 3.41835C12.5619 3.46386 12.4199 3.54425 12.3015 3.65078C12.2418 3.70211 12.186 3.75925 12.1367 3.82124C12.0288 3.95876 11.9634 4.12342 11.9293 4.29094C11.8782 4.51079 11.882 4.74516 11.9521 4.9621C12.0041 5.13352 12.0676 5.18582 12.0818 5.18969C12.0941 5.18679 12.1187 5.16742 12.1471 5.14127C12.1755 5.11512 12.2077 5.08413 12.2343 5.05701L12.2352 5.05604C12.2901 5.00181 12.3555 4.93789 12.435 4.873C12.5733 4.76743 12.7522 4.66187 12.9378 4.59214C12.9625 4.58342 12.9852 4.57471 13.0117 4.56696C13.0231 4.56212 13.0354 4.55921 13.0477 4.55631C13.06 4.55243 13.0714 4.54953 13.0837 4.54662C13.1793 4.52435 13.2788 4.52047 13.3564 4.50207C13.3573 4.50207 13.3583 4.50207 13.3592 4.5011C13.363 4.50013 13.3668 4.49917 13.3706 4.4982C13.4104 4.49045 13.4303 4.48076 13.452 4.45752C13.4966 4.41103 13.5278 4.33356 13.543 4.24155C13.5628 4.13308 13.5562 4.01299 13.5259 3.89678ZM6.52793 10.2364C6.53172 10.2413 6.53645 10.2461 6.54119 10.2509C6.54592 10.2548 6.54971 10.2597 6.55444 10.2635C6.56012 10.2684 6.56486 10.2742 6.57054 10.279C6.61315 10.311 6.66808 10.3313 6.73626 10.3323C6.81391 10.3313 6.87262 10.3042 6.91713 10.2635C6.92186 10.2597 6.92565 10.2558 6.93038 10.2509C6.93512 10.2461 6.93985 10.2413 6.94364 10.2364C6.98341 10.1909 7.00993 10.1299 7.01087 10.0514C7.00898 9.97299 6.98247 9.91197 6.94364 9.86645C6.93985 9.86161 6.93512 9.85677 6.93133 9.8529C6.9266 9.84805 6.92186 9.84418 6.91713 9.83934C6.91144 9.83449 6.90766 9.82868 6.90103 9.82481C6.88682 9.81416 6.87167 9.80447 6.85463 9.79672C6.82053 9.78123 6.78171 9.77154 6.73626 9.77057C6.66808 9.77154 6.61315 9.79188 6.57054 9.82481C6.56486 9.82965 6.56012 9.83449 6.55444 9.83934C6.54971 9.84321 6.54497 9.84805 6.54024 9.8529C6.53645 9.85774 6.53171 9.86161 6.52793 9.86645C6.48816 9.91197 6.46164 9.97299 6.45975 10.0514C6.46164 10.1308 6.48816 10.1919 6.52793 10.2364ZM4.2751 15.7579C4.27226 15.754 4.27037 15.7511 4.26753 15.7472C4.26469 15.7443 4.26185 15.7424 4.25806 15.7404C4.24291 15.7278 4.22397 15.7182 4.19935 15.7182C4.17378 15.7182 4.15484 15.7278 4.13874 15.7404C4.1359 15.7424 4.13211 15.7443 4.12927 15.7472C4.12643 15.7501 4.12454 15.754 4.12264 15.7569C4.11033 15.7724 4.10086 15.7927 4.10086 15.8189C4.10086 15.845 4.11033 15.8634 4.12264 15.8789C4.12454 15.8818 4.12643 15.8857 4.12927 15.8886C4.13211 15.8915 4.1359 15.8935 4.13969 15.8964C4.15484 15.909 4.17378 15.9177 4.19935 15.9186C4.22397 15.9186 4.24291 15.909 4.25806 15.8973C4.26185 15.8944 4.26469 15.8925 4.26753 15.8896C4.27037 15.8867 4.27226 15.8828 4.2751 15.8799C4.28742 15.8644 4.29594 15.845 4.29594 15.8199C4.29688 15.7937 4.28742 15.7734 4.2751 15.7579ZM6.53644 18.6614C6.53265 18.6575 6.52886 18.6537 6.52602 18.6498C6.52223 18.6459 6.51844 18.642 6.51371 18.6382C6.47488 18.6033 6.4228 18.5801 6.35557 18.5781C6.28834 18.5791 6.2372 18.6033 6.19932 18.6382C6.19553 18.642 6.19175 18.6459 6.18701 18.6498C6.18322 18.6537 6.17943 18.6575 6.17565 18.6624C6.14156 18.7011 6.11883 18.7544 6.11694 18.8231C6.11788 18.8919 6.14156 18.9442 6.17565 18.9839C6.17943 18.9878 6.18322 18.9926 6.18701 18.9965L6.19837 19.0081C6.23625 19.043 6.28833 19.0662 6.35462 19.0682C6.42185 19.0672 6.47394 19.043 6.51276 19.0081C6.51655 19.0043 6.52129 19.0004 6.52507 18.9965C6.52886 18.9926 6.53265 18.9888 6.53644 18.9849C6.57053 18.9461 6.5942 18.8929 6.59515 18.8241C6.5942 18.7534 6.57148 18.7001 6.53644 18.6614ZM15.8527 1.28382C15.8499 1.27898 15.847 1.2751 15.8432 1.27123C15.8394 1.26735 15.8356 1.26542 15.8309 1.26251C15.812 1.24702 15.7874 1.23539 15.7552 1.23443C15.7239 1.23443 15.7002 1.24605 15.6813 1.26155C15.6766 1.26445 15.6728 1.26736 15.669 1.27123C15.6652 1.2751 15.6633 1.27898 15.6595 1.28382C15.6444 1.30319 15.633 1.3274 15.633 1.36033C15.633 1.39326 15.6444 1.41747 15.6605 1.43781C15.6633 1.44168 15.6661 1.44652 15.669 1.4504C15.6728 1.45427 15.6775 1.45718 15.6813 1.46008C15.7002 1.47558 15.7239 1.4872 15.7552 1.48817C15.7874 1.48817 15.811 1.47558 15.83 1.46008C15.8338 1.45718 15.8385 1.45427 15.8423 1.4504C15.8461 1.44652 15.848 1.44168 15.8517 1.43781C15.8669 1.41844 15.8792 1.39326 15.8792 1.3613C15.8802 1.3274 15.8688 1.30319 15.8527 1.28382ZM16.8802 6.24916C16.8745 6.24238 16.8688 6.2356 16.8631 6.22979C16.8584 6.22495 16.8536 6.22108 16.8489 6.21623C16.7987 6.17072 16.7305 6.13973 16.6425 6.13876C16.5771 6.14069 16.5231 6.15909 16.4786 6.18621C16.4644 6.19493 16.4512 6.20461 16.4398 6.21527C16.4341 6.22011 16.4285 6.22592 16.4228 6.23173C16.4171 6.23754 16.4114 6.24335 16.4067 6.25013C16.3963 6.26175 16.3877 6.27531 16.3792 6.28984V6.29081C16.3527 6.33633 16.3347 6.39153 16.3328 6.45836C16.3347 6.52518 16.3527 6.58136 16.3792 6.62688C16.3792 6.62688 16.3792 6.62784 16.3802 6.62784C16.3887 6.6414 16.3972 6.65496 16.4076 6.66658C16.4124 6.67239 16.418 6.67821 16.4237 6.68499C16.4294 6.6908 16.4351 6.69661 16.4417 6.70145C16.4531 6.7121 16.4663 6.72082 16.4796 6.72954C16.4796 6.72954 16.4805 6.72954 16.4805 6.7305C16.525 6.75762 16.579 6.77602 16.6434 6.77796C16.7305 6.77602 16.7987 6.746 16.8489 6.70048C16.8536 6.69661 16.8584 6.69177 16.8631 6.68692C16.8688 6.68111 16.8745 6.67433 16.8802 6.66755C16.9237 6.61622 16.9531 6.54746 16.9559 6.45836C16.9531 6.36926 16.9237 6.30049 16.8802 6.24916ZM21.9758 5.49956C21.9749 5.49763 21.974 5.49569 21.9721 5.49472C21.9702 5.49278 21.9683 5.49182 21.9664 5.49085C21.9569 5.48213 21.9446 5.47632 21.9285 5.47632C21.9134 5.47632 21.901 5.48213 21.8925 5.48988C21.8906 5.49182 21.8887 5.49278 21.8868 5.49472C21.8849 5.49666 21.884 5.4986 21.8821 5.50053C21.8745 5.51022 21.8688 5.52184 21.8688 5.53734C21.8688 5.5538 21.8745 5.56639 21.883 5.57608C21.884 5.57801 21.8859 5.57995 21.8868 5.58189C21.8887 5.58382 21.8906 5.58479 21.8916 5.58576C21.901 5.59351 21.9134 5.60029 21.9294 5.60029C21.9465 5.60029 21.9588 5.59448 21.9683 5.58576C21.9692 5.58479 21.9711 5.58382 21.9721 5.58285C21.973 5.58189 21.974 5.57995 21.9749 5.57898C21.9834 5.5693 21.9901 5.55671 21.9891 5.53927C21.9901 5.52184 21.9844 5.50925 21.9758 5.49956ZM20.2959 11.232C20.2931 11.2281 20.2893 11.2252 20.2865 11.2214C20.2827 11.2185 20.2798 11.2146 20.2761 11.2117C20.2429 11.1817 20.1984 11.1613 20.1406 11.1603C20.0829 11.1613 20.0384 11.1817 20.0052 11.2117C20.0014 11.2146 19.9986 11.2185 19.9948 11.2214C19.992 11.2252 19.9882 11.2281 19.9853 11.232C19.956 11.2659 19.9361 11.3105 19.9352 11.3695C19.9361 11.4286 19.956 11.4741 19.9853 11.508C19.9882 11.5119 19.992 11.5148 19.9948 11.5187C19.9977 11.5216 20.0014 11.5255 20.0052 11.5284C20.0384 11.5584 20.0829 11.5787 20.1406 11.5797C20.1984 11.5787 20.2429 11.5584 20.2761 11.5284C20.2798 11.5255 20.2827 11.5226 20.2865 11.5187C20.2893 11.5148 20.2931 11.5119 20.2959 11.508C20.3253 11.4741 20.3452 11.4286 20.3461 11.3695C20.3452 11.3114 20.3253 11.2659 20.2959 11.232ZM5.03187 6.43601C5.35289 5.94111 5.78849 5.82974 6.46747 5.80261C6.99682 5.76097 7.01859 5.75903 7.01103 5.3358C6.99966 4.67045 6.86709 4.13876 6.68148 4.01383C6.57542 3.93635 6.41918 4.05257 6.26861 4.09615C5.47885 4.3896 3.4107 5.15956 3.14452 6.38469C3.33581 6.49413 3.85191 6.75175 4.4447 6.77789C4.76477 6.78854 4.87183 6.64907 5.03187 6.43601ZM2.48839 7.16044C2.31036 7.04713 2.12381 6.83503 2.03196 6.62486C1.84162 6.83405 1.62192 7.081 1.52059 7.21273C1.61245 7.25437 1.7971 7.30667 1.9827 7.3396L2.48839 7.16044Z" fill="#562622"/>
</svg>
