<svg width="33" height="24" viewBox="0 0 33 24" fill="none" xmlns="http://www.w3.org/2000/svg">
<path fill-rule="evenodd" clip-rule="evenodd" d="M2.61623 1.81663V19.4285C4.67437 18.3437 6.96131 17.7772 9.28258 17.7772C11.6039 17.7772 13.8908 18.3437 15.9489 19.4285V1.81663C13.9246 0.626793 11.6245 0 9.28258 0C6.9407 0 4.6406 0.626793 2.61623 1.81663ZM13.8032 19.6849C11.2931 19.6099 9.28258 19.744 7.3849 20.2894C5.12955 20.9367 3.03529 22.1332 0 23.9918V4.7315L1.51445 3.7992V20.3802C1.51504 20.4788 1.54146 20.5755 1.59104 20.6604C1.64061 20.7454 1.71157 20.8155 1.79669 20.8638C1.88182 20.912 1.97806 20.9366 2.07564 20.9351C2.17322 20.9335 2.26865 20.9058 2.35223 20.8549C4.05128 19.803 5.96308 19.1515 7.94556 18.949C9.92803 18.7464 11.9302 18.9979 13.8032 19.6849ZM31.4855 3.79992V20.3802C31.4852 20.4789 31.4589 20.5757 31.4094 20.6608C31.3598 20.7459 31.2889 20.8161 31.2037 20.8644C31.1185 20.9127 31.0221 20.9373 30.9244 20.9356C30.8268 20.9339 30.7313 20.9061 30.6478 20.8549C29.0081 19.8399 27.1695 19.1974 25.2596 18.972C23.3497 18.7466 21.4142 18.9436 19.5871 19.5493C24.1031 19.583 28.661 21.4308 33 24V4.7315L31.4855 3.7992V3.79992ZM17.0511 1.81663C19.0754 0.626793 21.3755 0 23.7174 0C26.0593 0 28.3594 0.626793 30.3838 1.81663V19.4285C28.3256 18.3437 26.0387 17.7772 23.7174 17.7772C21.3961 17.7772 19.1092 18.3437 17.0511 19.4285V1.81663Z" fill="#562622"/>
</svg>
