<svg width="18" height="24" viewBox="0 0 18 24" fill="none" xmlns="http://www.w3.org/2000/svg">
<path d="M17.4373 0H14.6249C14.3601 0 14.1327 0.185267 14.0766 0.448654L13.2977 4.00006H8.96031C8.68236 1.74896 6.78941 8.58302e-05 4.49998 8.58302e-05C2.01928 8.58302e-05 0 2.05142 0 4.57149C0 7.04021 1.93468 9.05146 4.34501 9.13403L4.44389 10.2345L5.57766 22.9118C5.6315 23.5324 6.13468 24 6.74771 24H13.5033C14.1164 24 14.6195 23.5313 14.6734 22.9118L15.7698 10.6553L16.3103 4.62423C16.3246 4.46463 16.2708 4.30726 16.1664 4.18675C16.062 4.06621 15.9071 4.00036 15.75 4.00036H14.4503L15.0744 1.14324H17.4375C17.7473 1.14324 18 0.886543 18 0.571814C18 0.257084 17.7473 0.000388552 17.4375 0.000388552L17.4373 0ZM11.9586 10.1205C11.4719 10.0145 10.9775 9.87163 10.4964 9.73771C9.83497 9.5491 9.14942 9.35491 8.44301 9.23437C8.23757 9.19978 8.03542 9.1741 7.83877 9.15736C7.77945 9.15178 7.72012 9.14844 7.66409 9.1462C7.52347 9.13728 7.38614 9.12946 7.25099 9.12946C7.22023 9.12946 7.18947 9.12611 7.15871 9.12611C7.11037 9.12611 7.06643 9.12946 7.02138 9.1317C6.95107 9.13504 6.88076 9.13504 6.81045 9.14062C6.72365 9.1462 6.63906 9.15178 6.55446 9.16071C6.48745 9.16629 6.42263 9.17187 6.35781 9.1808C6.27102 9.19196 6.18642 9.20647 6.09853 9.22321C6.03921 9.23437 5.97988 9.2433 5.92385 9.25446C5.82827 9.27455 5.73489 9.30022 5.6426 9.32589C5.60085 9.33705 5.55581 9.34821 5.51296 9.36049C5.50747 9.36384 5.50198 9.36384 5.49648 9.36607L5.42068 8.53125V8.52567L5.11637 5.14283H13.0473L11.9586 10.1205ZM5.90952 3.17741L6.47202 2.8493C6.74228 2.69193 7.08505 2.7868 7.23997 3.058C7.39487 3.33255 7.30149 3.68077 7.03452 3.83814L6.75327 3.99997H5.73484C5.72386 3.98546 5.71287 3.97095 5.70079 3.95756C5.54588 3.68301 5.63926 3.33478 5.90952 3.17741ZM3.09056 6.14625L2.52806 6.47436C2.44127 6.5257 2.34239 6.55137 2.24681 6.55137C2.05236 6.55137 1.86448 6.44869 1.76011 6.26566C1.60521 5.9911 1.69859 5.64289 1.96556 5.48552L2.52805 5.15741C2.79832 5.00004 3.14109 5.09491 3.296 5.36611C3.45092 5.63731 3.36082 5.98554 3.09056 6.14625ZM3.2993 3.95763C3.19493 4.14067 3.00705 4.24335 2.8126 4.24335C2.71702 4.24335 2.62144 4.21768 2.53135 4.16634L1.96885 3.83823C1.69859 3.68086 1.60629 3.33266 1.76341 3.05809C1.91831 2.78353 2.26108 2.68978 2.53136 2.84938L3.09386 3.1775C3.36082 3.33486 3.45419 3.68306 3.2993 3.95763ZM3.93759 2.02016C3.93759 1.70542 4.19028 1.44873 4.50009 1.44873C4.80991 1.44873 5.06259 1.70543 5.06259 2.02016V2.67976C5.06259 2.9945 4.80991 3.25118 4.50009 3.25118C4.19028 3.25118 3.93759 2.99448 3.93759 2.67976V2.02016ZM7.9257 20.568C7.90923 20.5714 7.89165 20.5714 7.87517 20.5714C7.58843 20.5714 7.34124 20.3482 7.31596 20.0513L6.75346 13.7656C6.7249 13.4509 6.95341 13.1741 7.26213 13.1451C7.57195 13.1161 7.8444 13.3482 7.87297 13.6618L8.43547 19.9475C8.46294 20.2634 8.23552 20.5401 7.9257 20.568ZM15.1338 5.143L14.6834 10.1721C14.5845 10.1978 14.4834 10.2212 14.3824 10.2402C14.3538 10.2458 14.3263 10.2491 14.2978 10.2514C14.2187 10.2625 14.1374 10.2737 14.0561 10.2826C14.0143 10.2859 13.9715 10.2882 13.9264 10.2915C13.8561 10.2971 13.7825 10.3005 13.71 10.3027C13.6617 10.3027 13.6144 10.306 13.5639 10.306C13.4903 10.306 13.4178 10.306 13.3442 10.3027C13.2936 10.2993 13.2431 10.2993 13.1893 10.2938C13.153 10.2904 13.1134 10.2882 13.0739 10.2848L14.1989 5.13858L15.1338 5.1397L15.1338 5.143Z" fill="#562622"/>
</svg>
