<svg width="15" height="24" viewBox="0 0 15 24" fill="none" xmlns="http://www.w3.org/2000/svg">
<path d="M14.9715 0.258333L14.9641 0H0.0366589L0.0281743 0.258333C0.023932 0.387501 -0.359999 13.3375 1.84282 23.1042L1.86615 23.2063L1.95418 23.2667C1.99766 23.2969 3.08794 24 7.3091 24H7.69198C11.912 24 13.0013 23.2958 13.0458 23.2667L13.1339 23.2073L13.1572 23.1052C15.36 13.3375 14.9761 0.387639 14.9718 0.258306L14.9715 0.258333ZM12.6542 22.8687C12.3317 23.0145 11.0569 23.4666 7.69183 23.4666H7.30895C3.93629 23.4666 2.66266 23.0125 2.34662 22.8687C0.358053 13.9458 0.523509 2.3978 0.563801 0.533266H14.4351C14.4775 2.39785 14.6417 13.9458 12.6542 22.8687Z" fill="#562622"/>
<path d="M7.63652 4.41465C6.38821 5.11881 5.57369 5.4563 5.0413 5.59902C6.39671 7.10006 10.1152 6.8063 10.1152 6.8063C7.21769 7.66046 4.71467 6.31881 3.74023 5.20838C3.09541 4.47401 1.86407 4.7563 1.41016 4.89276C1.4441 8.70742 1.70076 15.7407 2.99041 21.5469C3.28951 21.6781 4.4625 22.0771 7.49878 22.0625C10.5321 22.0771 11.7039 21.6792 12.0093 21.5458C13.3573 15.4834 13.5832 8.15198 13.5938 4.18532C12.8525 3.94782 9.90496 3.13549 7.63652 4.41465Z" fill="#562622"/>
</svg>
