<svg width="24" height="24" viewBox="0 0 24 24" fill="none" xmlns="http://www.w3.org/2000/svg">
<path d="M14.4409 0.610107H12.6104V2.644H14.4409C14.4948 2.644 14.5466 2.62264 14.5843 2.584C14.6229 2.54637 14.6443 2.49451 14.6443 2.44061V0.813497C14.6443 0.759599 14.6229 0.707734 14.5843 0.670108C14.5466 0.631463 14.4948 0.610107 14.4409 0.610107Z" fill="#562622"/>
<path d="M2.8476 9.76254C2.8476 9.5622 2.94624 9.37508 3.10997 9.26118L9.03068 5.1731L0.516696 9.58166C0.449577 9.61725 0.406862 9.6864 0.406862 9.76268C0.405845 10.4237 0.805499 11.0196 1.41874 11.2698C2.03096 11.519 2.73367 11.3725 3.19537 10.8986C2.96858 10.563 2.8476 10.1673 2.8476 9.76254Z" fill="#562622"/>
<path d="M23.4837 9.5816L14.9697 5.17303L20.8893 9.26008C21.0541 9.37398 21.1527 9.56213 21.1527 9.76246C21.1527 10.1672 21.0317 10.5628 20.8049 10.8984C21.2666 11.3723 21.9694 11.5187 22.5816 11.2696C23.1948 11.0194 23.5945 10.4235 23.5934 9.76246C23.5934 9.68619 23.5508 9.61719 23.4837 9.5816Z" fill="#562622"/>
<path d="M20.6587 9.5949L13.8289 4.87939L18.1347 9.33873C18.2445 9.45262 18.3055 9.60414 18.3055 9.76279C18.3055 10.1675 18.1845 10.5631 17.9577 10.8987C18.4194 11.3726 19.1222 11.5191 19.7344 11.2699C20.3476 11.0197 20.7472 10.4238 20.7462 9.76279C20.7462 9.69567 20.7136 9.63354 20.6587 9.5949Z" fill="#562622"/>
<path d="M5.69497 9.76257C5.69497 9.60494 5.75599 9.4524 5.86582 9.33952L10.1716 4.87915L3.3418 9.59465C3.28688 9.6333 3.25434 9.69533 3.25434 9.76245C3.25332 10.4235 3.65297 11.0194 4.26621 11.2696C4.87843 11.5187 5.58115 11.3723 6.04284 10.8984C5.81606 10.5628 5.69497 10.1673 5.69497 9.76257Z" fill="#562622"/>
<path d="M8.54262 9.76252C8.54262 9.67099 8.56397 9.58048 8.60364 9.4971L10.9284 4.68085L6.15894 9.62024V9.62126C6.12233 9.65889 6.10199 9.70973 6.10199 9.76261C6.10097 10.4236 6.50167 11.0196 7.11387 11.2697C7.72609 11.5189 8.4288 11.3724 8.8905 10.8985C8.66371 10.564 8.54262 10.1673 8.54262 9.76252Z" fill="#562622"/>
<path d="M17.8418 9.62122L13.0723 4.68182L15.3971 9.49704C15.4368 9.58043 15.4581 9.67093 15.4581 9.76245C15.4581 10.1672 15.3371 10.5638 15.1103 10.8984C15.572 11.3723 16.2748 11.5187 16.887 11.2696C17.4992 11.0194 17.8999 10.4235 17.8988 9.76245C17.8988 9.70957 17.8784 9.65884 17.8418 9.62122Z" fill="#562622"/>
<path d="M12.2036 3.86432L12.6103 4.66059L15.0307 9.67418C15.0439 9.70164 15.0511 9.73215 15.0511 9.76265C15.0521 10.4237 14.6514 11.0196 14.0392 11.2698C13.427 11.5189 12.7242 11.3725 12.2615 10.8996C12.2036 10.3728 12.2036 4.28529 12.2036 3.86432Z" fill="#562622"/>
<path d="M5.40521 20.6124L7.55812 23.651C8.25677 22.5131 11.1938 17.1111 11.7166 12.7879C11.0576 15.0801 9.42014 18.6098 5.40521 20.6124Z" fill="#562622"/>
<path d="M4.88659 20.4976C4.89981 20.4365 4.9415 20.3857 4.99743 20.3582C9.85152 18.061 11.2295 13.4887 11.6068 11.5138C10.8155 11.9826 9.80672 11.8595 9.15282 11.2128C8.36367 11.9907 7.09449 11.9907 6.30519 11.2128C5.51604 11.9907 4.24687 11.9907 3.45756 11.2128C2.99485 11.6734 2.33686 11.8799 1.69415 11.766C2.01146 13.3189 2.62061 18.0193 0.0181982 23.7121C-0.0102754 23.7752 -0.00519174 23.8484 0.0324358 23.9064C0.0690452 23.9643 0.134131 23.9999 0.203286 23.9999H7.32913L4.92705 20.6715C4.88739 20.6227 4.87235 20.5586 4.88659 20.4976Z" fill="#562622"/>
<path d="M22.3061 11.7661C21.6634 11.88 21.0054 11.6736 20.5427 11.2129C19.7536 11.9909 18.4844 11.9909 17.6951 11.2129C16.9059 11.9909 15.6368 11.9909 14.8475 11.2129C14.1936 11.8587 13.1857 11.9827 12.3945 11.5139C12.7728 13.4908 14.1539 18.064 19.0018 20.3584H19.0028C19.0587 20.3848 19.1004 20.4367 19.1136 20.4977C19.1279 20.5587 19.1126 20.6228 19.073 20.6716L16.6709 24H23.7967C23.8659 24 23.931 23.9644 23.9676 23.9064C24.0052 23.8485 24.0103 23.7753 23.9818 23.7122C21.3794 18.0194 21.9886 13.319 22.3058 11.7661L22.3061 11.7661Z" fill="#562622"/>
<path d="M7.8186 23.9999H16.1821C15.6879 23.1874 12.7977 18.2256 12.0005 13.6942C11.2032 18.2256 8.31273 23.1874 7.8186 23.9999Z" fill="#562622"/>
<path d="M12.284 12.7879C12.8077 17.1108 15.7447 22.5128 16.4425 23.651L18.5954 20.6124C14.5803 18.61 12.9429 15.0802 12.284 12.7879Z" fill="#562622"/>
<path d="M12.0002 3.45768C11.9463 3.45768 11.8944 3.43632 11.8568 3.39768C11.8182 3.36005 11.7968 3.30819 11.7968 3.25429V0.203389C11.7968 0.0915244 11.8883 0 12.0002 0C12.1121 0 12.2036 0.0915244 12.2036 0.203389V3.25429C12.2036 3.30819 12.1822 3.36005 12.1436 3.39768C12.106 3.43632 12.0541 3.45768 12.0002 3.45768Z" fill="#562622"/>
<path d="M11.7969 3.86432L11.3901 4.66059L8.96974 9.67418C8.95652 9.70164 8.9494 9.73215 8.9494 9.76265C8.94839 10.4237 9.34908 11.0196 9.96128 11.2698C10.5735 11.5189 11.2762 11.3725 11.7389 10.8996C11.7969 10.3728 11.7969 4.28529 11.7969 3.86432Z" fill="#562622"/>
</svg>
