<svg width="24" height="23" viewBox="0 0 24 23" fill="none" xmlns="http://www.w3.org/2000/svg">
<rect width="24" height="23" fill="white"/>
<path d="M12 5.3492e-05C5.7306 5.3492e-05 0.518125 1.93953 0.0363268 4.45167C0.0128894 4.57455 0.00117 4.6986 0 4.82264C0 5.07073 0.0480477 5.31882 0.142967 5.56458C0.240233 5.81614 0.387889 6.06423 0.583605 6.30651C0.796887 6.56271 1.06291 6.81195 1.38046 7.05076C1.9078 7.45651 2.57695 7.8298 3.36561 8.15904C4.04061 8.44538 4.80117 8.69694 5.6285 8.90792C6.38669 9.0992 8.15858 9.37742 8.20543 10.8787C8.22418 11.4919 8.48786 11.9974 9.05857 12.0832C10.2093 12.2571 10.425 11.689 10.5316 11.0908C10.6348 10.5135 10.6359 9.90603 11.2805 9.91182C11.8265 9.9153 12.014 10.4439 12.1066 11.1279C12.2531 12.2072 12.1617 13.6725 12.8601 14.0829C13.2175 14.0725 13.5738 14.0562 13.9277 14.0319C14.6554 13.5902 14.5335 12.3115 14.5664 11.0143C14.6214 8.90092 17.2195 9.18844 18.3563 8.90092C19.1906 8.69225 19.957 8.44184 20.6391 8.15783C21.4277 7.82627 22.0945 7.45183 22.6207 7.04492C22.9313 6.80727 23.1926 6.55919 23.4012 6.30414C23.6004 6.06533 23.7539 5.8161 23.857 5.56452C23.952 5.31876 24 5.07066 24 4.82259C24 4.69854 23.9883 4.5745 23.9637 4.45162C23.482 1.93948 18.2697 5.3492e-05 12 5.3492e-05ZM0.601224 7.79039C0.399661 8.03268 0.247316 8.28075 0.144206 8.53232C0.0481138 8.77809 6.58033e-05 9.02618 6.58033e-05 9.27426C0.00592508 9.64986 0.120767 10.0231 0.342244 10.3872C0.487558 10.6422 0.684423 10.8914 0.930512 11.1337C1.34418 11.5302 1.8891 11.9035 2.55003 12.242C4.82228 13.4117 8.3073 14.0957 12 14.0968C12.1055 14.0968 12.2109 14.0957 12.3164 14.0945C12.0656 13.7723 11.9683 13.3398 11.9039 12.9109C11.816 12.3231 11.8031 11.6844 11.734 11.1778C11.7316 11.1604 11.7293 11.1442 11.7269 11.1268V11.1279C11.4539 11.1256 11.1797 11.1187 10.9078 11.1082C10.9055 11.1245 10.9019 11.1407 10.8996 11.1558C10.8422 11.4769 10.7531 11.8595 10.4402 12.1481C10.1274 12.4368 9.63984 12.5469 9.00117 12.4507C8.6121 12.3916 8.30275 12.1551 8.12932 11.8687C7.95471 11.5824 7.88205 11.259 7.834 10.9321C7.82814 10.8961 7.82346 10.859 7.81877 10.8231L7.8176 10.8243C7.67463 10.8034 7.53283 10.7802 7.3922 10.757C5.87462 10.5008 4.50471 10.1229 3.36561 9.64527C2.82304 9.41805 2.33554 9.17111 1.91248 8.90565C1.35817 8.55785 0.917633 8.18337 0.601224 7.79039ZM23.3951 7.79386C23.0787 8.18569 22.6393 8.55898 22.0873 8.90561C21.6655 9.16993 21.1791 9.41686 20.6377 9.64292C19.4987 10.1217 18.1264 10.5008 16.6075 10.757C16.0661 10.8474 15.5083 10.9228 14.94 10.9796V11.0155C14.94 11.6566 14.9646 12.3093 14.8907 12.8924C14.8392 13.2912 14.7361 13.683 14.5134 13.989H14.5122C17.2638 13.7514 19.7187 13.1335 21.4497 12.242C22.113 11.9023 22.6603 11.5279 23.0751 11.1291C23.3189 10.888 23.5134 10.6399 23.6575 10.3872C23.879 10.0231 23.9939 9.64986 23.9997 9.27426C23.995 9.02617 23.9423 8.77808 23.8415 8.53232C23.7407 8.28192 23.5919 8.03499 23.395 7.79502L23.3951 7.79386ZM0.601224 12.2419C0.399661 12.4842 0.247316 12.7323 0.144206 12.9839C0.0481138 13.2296 6.58033e-05 13.4777 6.58033e-05 13.7258C0.00592508 14.1014 0.120767 14.4747 0.342244 14.8387C0.487558 15.0937 0.684423 15.343 0.930512 15.5853C1.34418 15.9817 1.8891 16.355 2.55003 16.6935C4.82228 17.8632 8.3073 18.5472 12 18.5484C15.6927 18.5472 19.1778 17.8632 21.4499 16.6935C22.1132 16.3539 22.6605 15.9794 23.0753 15.5806C23.3191 15.3395 23.5136 15.0914 23.6578 14.8387C23.8792 14.4747 23.9941 14.1014 23.9999 13.7258C23.9953 13.4777 23.9425 13.2296 23.8417 12.9839C23.741 12.7335 23.5921 12.4865 23.3953 12.2466C23.0788 12.6372 22.6394 13.0105 22.0874 13.3571C21.6656 13.6215 21.1792 13.8684 20.6378 14.0956C19.4988 14.5732 18.1265 14.9523 16.6077 15.2085C15.1475 15.4531 13.5819 15.5795 12 15.5806C10.418 15.5795 8.85239 15.4531 7.39229 15.2085C5.87472 14.9523 4.50481 14.5744 3.36571 14.0968C2.82313 13.8695 2.33563 13.6226 1.91258 13.3571C1.35827 13.0093 0.917633 12.6349 0.601224 12.2419ZM0.601224 16.6935C0.399661 16.9358 0.247316 17.1839 0.144206 17.4355C0.0481138 17.6812 6.58033e-05 17.9293 6.58033e-05 18.1774C0.00592508 18.553 0.120767 18.9263 0.342244 19.2903C0.487558 19.5454 0.684423 19.7946 0.930512 20.0369C1.34418 20.4333 1.8891 20.8067 2.55003 21.1452C4.82228 22.3149 8.3073 22.9988 12 23C15.6927 22.9988 19.1778 22.3149 21.4499 21.1452C22.1132 20.8055 22.6605 20.4311 23.0753 20.0323C23.3191 19.7911 23.5136 19.5431 23.6578 19.2903C23.8792 18.9263 23.9941 18.553 23.9999 18.1774C23.9953 17.9293 23.9425 17.6812 23.8417 17.4355C23.741 17.1851 23.5921 16.9381 23.3953 16.6982C23.0788 17.0888 22.6394 17.4621 22.0874 17.8088C21.6656 18.0731 21.1792 18.32 20.6378 18.5472C19.4988 19.0249 18.1265 19.4039 16.6077 19.6601C15.1475 19.9047 13.5819 20.0311 12 20.0323C10.418 20.0311 8.85239 19.9047 7.39229 19.6601C5.87472 19.4039 4.50481 19.026 3.36571 18.5484C2.82313 18.3212 2.33563 18.0742 1.91258 17.8088C1.35827 17.461 0.917633 17.0865 0.601224 16.6935Z" fill="#562622"/>
</svg>
