<svg width="24" height="24" viewBox="0 0 24 24" fill="none" xmlns="http://www.w3.org/2000/svg">
<path d="M23.6776 11.9114C24.2593 10.771 24.0397 9.38509 23.1333 8.48151C22.5977 7.91558 21.672 7.221 21.6035 6.3807L21.3935 5.06876C21.1964 3.80076 20.2011 2.80501 18.9337 2.60778L17.6224 2.3977C16.7953 2.32481 16.0754 1.40302 15.5226 0.867097C14.6194 -0.0396938 13.2342 -0.259429 12.0943 0.322589C11.3915 0.65702 10.4445 1.32155 9.62596 1.1329L8.31035 0.922821C7.0451 0.720241 5.79271 1.35798 5.21202 2.50059L4.60349 3.68391C4.28208 4.44706 3.17648 4.84581 2.49938 5.20595C1.35733 5.7869 0.719887 7.03989 0.922375 8.30578L1.13235 9.62202C1.31234 10.4281 0.660954 11.4013 0.322433 12.0916C-0.259303 13.232 -0.0396746 14.6179 0.866678 15.5215C1.40234 16.0874 2.32797 16.782 2.39654 17.6223L2.60652 18.9342C2.80364 20.2023 3.79892 21.198 5.06631 21.3952L6.37761 21.6053C7.20468 21.6782 7.92461 22.6 8.47742 23.1359C9.3827 24.0384 10.7658 24.2581 11.9057 23.6804C12.6085 23.346 13.5598 22.6815 14.374 22.8701L15.6896 23.0802C16.9549 23.2828 18.2073 22.645 18.788 21.5024L19.3922 20.3148C19.7136 19.5517 20.8192 19.1529 21.4963 18.7928C22.6384 18.2118 23.2758 16.9588 23.0733 15.693L22.8633 14.3767C22.6876 13.575 23.339 12.6017 23.6776 11.9114ZM20.6777 13.6007C20.4559 14.1452 19.9706 14.5385 19.3921 14.6425C17.678 15.2856 16.3151 13.0219 17.1166 11.5641C17.4315 11.0282 17.8837 10.5866 18.4279 10.2865C18.896 9.95095 19.5228 9.93704 20.0049 10.2522C20.488 10.5662 20.728 11.1461 20.6091 11.7099C20.5277 11.8974 20.5277 12.1097 20.6091 12.2972C20.8298 12.697 20.8619 13.1751 20.6948 13.6006L20.6777 13.6007ZM10.2856 15.8601C10.0489 15.8601 9.85711 15.6683 9.85711 15.4314C9.85711 15.1945 10.0489 15.0027 10.2856 15.0027C10.5224 15.0027 10.7142 15.1945 10.7142 15.4314C10.7142 15.6683 10.5224 15.8601 10.2856 15.8601ZM7.42729 18.3597C5.71315 19.0028 4.35035 16.7391 5.15177 15.2813C5.45924 14.7561 5.89957 14.3209 6.42879 14.0208C6.89481 13.6971 7.51083 13.6885 7.98651 13.9972C8.46219 14.3069 8.70324 14.874 8.59718 15.4313C8.51576 15.6189 8.51576 15.8311 8.59718 16.0187C9.14143 17.052 8.5029 18.111 7.42729 18.3597ZM5.14321 9.85788C5.37998 9.85788 5.57175 10.0497 5.57175 10.2866C5.57175 10.5235 5.37998 10.7154 5.14321 10.7154C4.90645 10.7154 4.71468 10.5235 4.71468 10.2866C4.71468 10.0497 4.90645 9.85788 5.14321 9.85788ZM7.71441 12.0016C7.71441 11.7647 7.90618 11.5728 8.14295 11.5728C8.37971 11.5728 8.57148 11.7647 8.57148 12.0016C8.57148 12.2385 8.37971 12.4303 8.14295 12.4303C7.90618 12.4303 7.71441 12.2385 7.71441 12.0016ZM8.36151 9.00026C6.47596 9.97351 4.88168 7.76548 5.7303 6.05052C6.0367 5.52854 6.47165 5.09442 6.99448 4.79001C7.49692 4.42128 8.18258 4.42879 8.67754 4.80716C9.17357 5.18552 9.35998 5.84579 9.13715 6.42778C9.11036 6.55426 9.12965 6.68717 9.19285 6.8008C9.40819 7.19738 9.44033 7.66901 9.2807 8.0913C9.12108 8.51362 8.78576 8.84591 8.36151 9.00026ZM10.2856 3.77826C10.5224 3.77826 10.7142 3.97012 10.7142 4.207C10.7142 4.44388 10.5224 4.63574 10.2856 4.63574C10.0489 4.63574 9.85708 4.44388 9.85708 4.207C9.85708 3.97012 10.0489 3.77826 10.2856 3.77826ZM10.6156 13.4378C10.1121 12.9651 9.84208 12.2941 9.8785 11.6038C9.91492 10.9136 10.2535 10.2747 10.8041 9.85777L11.3569 9.42902C11.8251 9.09569 12.4497 9.08389 12.9307 9.39794C13.4107 9.71306 13.6507 10.2897 13.5339 10.8525C13.4568 11.0411 13.4568 11.2512 13.5339 11.4398C13.7514 11.8343 13.7878 12.3037 13.6325 12.726C13.4043 13.2652 12.9222 13.6564 12.3469 13.7679C11.7533 13.9855 11.0881 13.859 10.6156 13.4378ZM12.4283 6.85669C12.4283 7.09357 12.2365 7.28543 11.9998 7.28543C11.763 7.28543 11.5712 7.09357 11.5712 6.85669C11.5712 6.61981 11.763 6.42795 11.9998 6.42795C12.2365 6.42795 12.4283 6.61981 12.4283 6.85669ZM11.9998 16.3189C12.1669 15.9802 12.4122 15.6865 12.7154 15.4614C13.1439 15.1227 13.6967 14.6683 14.2967 14.8012C14.7209 14.8687 15.0916 15.1238 15.307 15.4957C15.5212 15.8677 15.5566 16.3168 15.4023 16.7176C15.3755 16.8441 15.3948 16.977 15.458 17.0906C15.6755 17.4851 15.7098 17.9545 15.5523 18.3769C15.3241 18.9171 14.842 19.3072 14.2667 19.4187C12.5483 20.0318 11.207 17.7809 11.9998 16.3189ZM15.428 12.4302C15.1913 12.4302 14.9995 12.2383 14.9995 12.0014C14.9995 11.7646 15.1913 11.5727 15.428 11.5727C15.6648 11.5727 15.8566 11.7646 15.8566 12.0014C15.8566 12.2383 15.6648 12.4302 15.428 12.4302ZM15.608 9.21456C13.6025 9.17168 13.0368 6.21323 14.6438 5.17575C15.0723 4.83704 15.6251 4.38259 16.2208 4.5155C16.6011 4.57445 16.9408 4.78775 17.1582 5.10501C17.3757 5.42227 17.4518 5.81564 17.3693 6.19186C17.29 6.37943 17.29 6.59165 17.3693 6.77923C17.5921 7.17581 17.6296 7.65065 17.4732 8.07725C17.3168 8.50492 16.9815 8.84149 16.5551 9.00012C16.2562 9.13089 15.9348 9.20384 15.608 9.21456ZM19.2848 7.71395C19.2848 7.95083 19.093 8.14269 18.8562 8.14269C18.6195 8.14269 18.4277 7.95083 18.4277 7.71395C18.4277 7.47707 18.6195 7.28521 18.8562 7.28521C19.093 7.28521 19.2848 7.47707 19.2848 7.71395ZM17.1421 16.9662C16.9053 16.9662 16.7136 16.7744 16.7136 16.5375C16.7136 16.3006 16.9053 16.1088 17.1421 16.1088C17.3789 16.1088 17.5706 16.3006 17.5706 16.5375C17.5706 16.7744 17.3789 16.9662 17.1421 16.9662ZM3.42901 13.5791C3.19224 13.5791 3.00047 13.3873 3.00047 13.1504C3.00047 12.9135 3.19224 12.7216 3.42901 12.7216C3.66577 12.7216 3.85754 12.9135 3.85754 13.1504C3.85754 13.3873 3.66577 13.5791 3.42901 13.5791Z" fill="#562622"/>
</svg>
