<svg width="15" height="24" viewBox="0 0 15 24" fill="none" xmlns="http://www.w3.org/2000/svg">
<path d="M2.99978 0.721998V1.88817C2.99978 2.02273 2.95876 2.15492 2.88377 2.26588L0.151161 6.25414C0.0527329 6.39814 0 6.56812 0 6.74398V21.4403C0 21.8735 0.308166 22.2453 0.732363 22.3232L9.75266 23.9769C10.1604 24.0512 10.7815 23.9403 11.1389 23.729C12.2111 23.0928 13.2832 22.4531 14.3555 21.8145C14.7118 21.6021 15 21.0934 15 20.6767L14.9988 6.54116C14.9988 6.24962 14.9109 5.96518 14.7469 5.72556L12.8978 3.02615C12.8006 2.88451 12.749 2.71691 12.749 2.54456V1.5094C12.749 1.06797 12.4115 0.699695 11.9745 0.664282L3.7743 0.00211905C3.57509 -0.0132251 3.37707 0.0552335 3.23059 0.192153C3.08294 0.32907 2.99975 0.521452 2.99975 0.723297L2.99978 0.721998ZM3.92664 1.91766L11.8877 2.75097H11.8889C11.9522 2.75687 11.999 2.81117 11.999 2.87491V2.9233C11.999 3.00238 12.0225 3.0791 12.067 3.14402L12.2861 3.46507H12.2873C12.4221 3.66218 12.4291 3.92067 12.3049 4.12488L10.8929 6.43831C10.8589 6.49496 10.8636 6.56578 10.9046 6.61772C10.9468 6.66847 11.0159 6.68736 11.0769 6.66375L13.4228 5.77732C13.6325 5.69824 13.868 5.7726 13.9946 5.95791L14.0016 5.96853V5.96971C14.0543 6.04525 14.0684 6.14086 14.0415 6.22821C14.0133 6.31555 13.9477 6.38637 13.8622 6.41824L10.7967 7.57613C10.6174 7.64341 10.4991 7.81692 10.4991 8.00932V16.9114C11.3404 15.2459 12.3974 15.2436 12.7653 15.7664C13.5176 16.8382 11.4611 16.6954 12.1466 17.4378C12.7208 18.0586 13.4157 17.9524 14.2488 17.1061V20.5598C14.2488 20.8313 14.1058 21.0827 13.8738 21.222L10.7721 23.0692C10.717 23.1023 10.6467 23.1034 10.5904 23.0704C10.5342 23.0385 10.499 22.9771 10.499 22.9122L10.4991 16.9114C10.485 16.9385 10.4721 16.9658 10.458 16.993C10.2846 17.3494 10.0233 17.6233 9.74908 17.8098V22.9124C9.74908 22.9856 9.71627 23.0552 9.66119 23.1013C9.60495 23.1485 9.5323 23.1685 9.46082 23.1556L1.18566 21.6388C0.93373 21.5916 0.749766 21.3709 0.749766 21.1124V18.21C1.21146 18.5712 1.98132 19.0162 2.32464 18.3068C2.58947 17.7614 2.18286 17.3896 1.71767 17.3259C1.06615 17.2374 0.856408 16.7806 1.13062 16.3462C1.39192 15.9331 1.87237 16.1007 2.22037 16.7924C2.38794 17.1265 2.78049 17.261 3.03241 17.0816C3.63938 16.6508 3.40153 16.2459 2.95273 16.142C2.16412 15.9579 1.94733 15.1848 2.34693 14.8767C2.85197 14.4872 3.64291 14.551 4.42567 17.4605C4.91898 19.2947 6.91455 18.2454 6.85362 17.1335C6.77394 15.6829 7.58599 14.6666 8.17892 14.6997C8.31602 14.708 8.44023 14.7717 8.53982 14.898C9.15268 15.6794 7.07978 15.9674 7.45592 17.3708C7.55669 17.7473 8.20469 17.1689 8.60192 16.4643C9.00971 15.7431 9.46435 15.6404 9.74792 15.7549L9.76315 8.10651L9.76432 8.1077C9.76432 7.85865 9.58152 7.64738 9.33662 7.61432L1.35784 6.51191V6.51073C1.26644 6.49892 1.18676 6.43873 1.14926 6.35256C1.11294 6.26758 1.12114 6.16843 1.17387 6.09171C1.32503 5.87571 1.584 5.76359 1.84297 5.80017L9.32018 6.78102C9.56157 6.81289 9.79829 6.70076 9.92833 6.4942L11.6016 3.82549V3.82431C11.645 3.75585 11.6497 3.66851 11.6145 3.59533C11.5782 3.52097 11.5079 3.47139 11.427 3.46313L3.66394 2.65106L3.66276 2.64988C3.63699 2.64752 3.61472 2.631 3.60418 2.60739C3.59363 2.58378 3.59597 2.55664 3.61003 2.53539L3.678 2.43624C3.72487 2.36779 3.74948 2.28752 3.74948 2.2049V2.07979C3.74948 2.03376 3.76822 1.99008 3.80221 1.95939C3.83619 1.92871 3.88189 1.91336 3.92641 1.91808L3.92664 1.91766ZM9.74908 17.8098L9.74919 16.6577C9.23008 16.9929 8.25516 17.1546 8.53992 17.9277C8.64538 18.2133 9.22178 18.1686 9.74908 17.8098ZM13.3759 13.9583C13.52 13.9583 13.6349 14.0327 13.6618 14.1696C13.8118 14.9179 12.9892 14.4611 12.6611 15.1304C12.6072 14.3112 13.0595 13.9571 13.3759 13.9583Z" fill="#562622"/>
</svg>
