<svg width="24" height="23" viewBox="0 0 24 23" fill="none" xmlns="http://www.w3.org/2000/svg">
<path d="M17.0666 12.5842C16.9974 12.3652 17.0725 12.1272 17.2556 11.9927L21.4145 8.9284C21.9228 8.55354 22.127 7.92047 21.931 7.31714C21.7362 6.71143 21.2068 6.32113 20.5788 6.32113H15.4375C15.2121 6.32113 15.0102 6.17476 14.9422 5.95581L13.3528 0.996011C13.1579 0.390301 12.6285 0 12.0005 0C11.3725 0 10.8408 0.390301 10.6483 0.996011L9.05889 5.95581C8.98963 6.17477 8.78891 6.32113 8.56354 6.32113H3.42227C2.79429 6.32113 2.26252 6.71143 2.07002 7.31714C1.87516 7.92285 2.07941 8.55354 2.58652 8.9284L6.74545 11.9927C6.92857 12.1272 7.0037 12.364 6.93444 12.5842L5.34506 17.5406C5.1502 18.1463 5.35445 18.777 5.86156 19.1519C6.36983 19.5267 7.02717 19.5267 7.53544 19.1519L11.6944 16.0875C11.8775 15.9531 12.124 15.9531 12.3071 16.0875L16.4661 19.1519C16.722 19.3375 17.0095 19.4327 17.3018 19.4327C17.5929 19.4327 17.8852 19.3387 18.1376 19.1519C18.6458 18.777 18.8466 18.1439 18.6541 17.5406L17.0647 12.5808L17.0666 12.5842Z" fill="#562622"/>
<path d="M6.67018 4.06742C6.78756 4.22569 6.96716 4.31137 7.15146 4.31137C7.27824 4.31137 7.40383 4.2721 7.51182 4.18999C7.77593 3.98888 7.82993 3.60451 7.63155 3.33676L5.4494 0.384402C5.25103 0.116654 4.87539 0.0619134 4.60776 0.263023C4.34365 0.464132 4.28965 0.848505 4.48803 1.11625L6.67018 4.06861V4.06742Z" fill="#562622"/>
<path d="M16.7334 4.18868C16.8414 4.27078 16.9681 4.31006 17.0937 4.31006C17.2768 4.31006 17.4576 4.22438 17.575 4.06611L19.7571 1.11375C19.9555 0.845999 19.9015 0.461642 19.6374 0.26052C19.3733 0.0594111 18.9942 0.114151 18.7958 0.3819L16.6136 3.33426C16.4152 3.60201 16.4692 3.98637 16.7334 4.18749V4.18868Z" fill="#562622"/>
<path d="M23.5908 13.4526L19.952 12.2222C19.6363 12.1151 19.297 12.2888 19.1914 12.6089C19.0858 12.929 19.2571 13.2729 19.5706 13.38L23.2093 14.6105C23.2727 14.6319 23.3361 14.6414 23.3983 14.6414C23.6507 14.6414 23.8855 14.4796 23.9688 14.2237C24.0744 13.9036 23.903 13.5597 23.5896 13.4526L23.5908 13.4526Z" fill="#562622"/>
<path d="M4.04891 12.2222L0.410148 13.4527C0.0943814 13.5598 -0.0734787 13.9037 0.0310055 14.2238C0.115521 14.4796 0.349116 14.6415 0.601477 14.6415C0.664864 14.6415 0.728252 14.632 0.790465 14.6105L4.42923 13.3801C4.745 13.273 4.91286 12.9291 4.80837 12.609C4.70273 12.2889 4.36348 12.1151 4.04775 12.2223L4.04891 12.2222Z" fill="#562622"/>
<path d="M12.0005 18.0865C11.6694 18.0865 11.3995 18.3602 11.3995 18.6958V22.3907C11.3995 22.7263 11.6694 23 12.0005 23C12.3315 23 12.6015 22.7263 12.6015 22.3907V18.6958C12.6015 18.3602 12.3315 18.0865 12.0005 18.0865Z" fill="#562622"/>
</svg>
