<svg width="24" height="23" viewBox="0 0 24 23" fill="none" xmlns="http://www.w3.org/2000/svg">
<path d="M0.543302 5.53742C1.64435 2.44168 4.12049 -0.527027 6.2066 0.0793901C9.83423 1.13208 10.515 8.50098 10.5771 9.28914C10.1914 9.35579 9.82581 9.50285 9.49604 9.71867C7.25284 7.97828 6.72076 4.95995 6.71537 4.92799C6.71537 4.92799 6.70799 8.19924 9.0376 10.0846C8.87955 10.2401 8.73415 10.4125 8.6077 10.6051C6.85654 9.54078 3.6039 9.62647 3.6039 9.62647C3.63551 9.6307 6.69206 10.0941 8.33797 11.1098C8.17571 11.4949 8.09668 11.8969 8.09668 12.2915C6.93241 12.2725 4.4143 12.0376 1.13948 10.6305C-0.401982 9.96716 -0.145783 7.47259 0.543302 5.53742ZM1.12703 15.5797C0.695027 15.2771 0.593877 14.8074 0.6434 14.4688C0.777211 13.5569 0.720317 13.322 0.533821 12.7782C0.497998 12.6713 0.455852 12.5497 0.410545 12.4016C0.244069 11.8588 1.06697 11.3182 1.16286 11.2568C4.46492 12.6343 7.00525 12.8501 8.15377 12.8628C8.21805 13.1845 8.33605 13.4902 8.50675 13.7663C3.61165 16.4007 1.78329 16.04 1.12703 15.5797ZM9.07037 10.9372C9.51923 10.2453 10.2768 9.81576 11.0491 9.81576C11.4421 9.81576 11.8204 9.92791 12.1438 10.1395C12.6201 10.4505 12.9372 10.9457 13.0373 11.535C13.1385 12.1327 13.0057 12.7538 12.6622 13.2838C12.2144 13.9757 11.4558 14.4053 10.6835 14.4053C10.2905 14.4053 9.91223 14.2942 9.58877 14.0826C8.59939 13.4351 8.36656 12.0237 9.07037 10.9372ZM13.4851 22.5569H13.4745C13.3197 22.5537 13.1922 22.5474 13.0794 22.541C12.5063 22.5114 12.2681 22.5199 11.4305 22.8997C11.1207 23.0404 10.6424 23.0711 10.2346 22.7378C9.60559 22.2226 8.74266 20.5161 9.99648 14.8812C10.2188 14.9426 10.4495 14.9764 10.6856 14.9764C10.7435 14.9764 10.7994 14.968 10.8573 14.9648L10.8394 14.969C11.1018 15.9392 11.9689 18.4889 14.3648 21.5158C14.3332 21.6227 14.0477 22.5569 13.4851 22.5569ZM20.0112 20.5446C18.3465 21.7402 16.0284 22.6722 14.9705 21.3656C12.5608 18.3896 11.6822 15.88 11.4049 14.8814C11.7537 14.7883 12.0834 14.6275 12.3785 14.4095C13.8631 15.6452 15.2422 18.6815 15.256 18.7113C15.256 18.7113 14.3635 15.368 12.8031 14.0214C12.9253 13.8902 13.0402 13.7505 13.1403 13.595C13.1613 13.5622 13.1792 13.5284 13.1982 13.4956C16.5067 15.4327 18.9006 14.4181 18.9006 14.4181C18.8701 14.4224 15.7418 14.745 13.4491 12.9719C13.5776 12.6227 13.6419 12.2588 13.6366 11.8917C14.2519 11.7647 21.6528 10.3216 23.683 13.5781C24.8347 15.4243 22.6737 18.632 20.0112 20.545L20.0112 20.5446Z" fill="#562622"/>
</svg>
