<svg width="24" height="24" viewBox="0 0 24 24" fill="none" xmlns="http://www.w3.org/2000/svg">
<path d="M2.65192 13.6191V13.6203H2.65066H2.6494V13.6191C2.65066 13.6191 2.65066 13.6203 2.65192 13.6203M11.9665 0.000575627L11.9072 0.00184172C11.4452 -0.0184108 10.7851 0.128419 9.92813 0.439816C9.4561 0.646139 9.02821 0.92335 8.64578 1.2727C8.13462 1.76255 7.77994 2.21316 7.58052 2.62457C7.3546 2.98279 7.16274 3.55618 7.00752 4.34351C6.95325 4.4511 6.89393 4.51818 6.8283 4.54603C6.74499 4.5878 6.66422 4.60299 6.58596 4.59033C6.00789 4.40933 5.51819 4.31692 5.11808 4.31186C4.901 4.29414 4.5602 4.31692 4.09322 4.37895C2.95478 4.60805 2.07883 5.05613 1.46418 5.72193C0.0619559 7.11936 -0.333109 8.86235 0.27902 10.9536C0.392612 11.3434 0.713213 11.8725 1.24078 12.5396C1.51088 12.9105 2.18739 13.413 3.26903 14.0484C3.48612 14.2129 3.70322 14.5142 3.92155 14.9534C4.03514 15.2446 4.10203 15.4851 4.12097 15.6737L4.56776 21.2508C5.67467 20.952 7.12487 20.6786 8.91971 20.4305L7.52504 12.265C7.52252 11.9916 7.64116 11.8385 7.88098 11.803C8.08923 11.7916 8.22932 11.9005 8.30254 12.1309L9.7111 20.3495C11.5336 20.2609 13.0407 20.2698 14.2307 20.3761L15.6923 12.0281C15.7175 11.8484 15.8463 11.7383 16.081 11.7003C16.3675 11.7535 16.4975 11.9079 16.471 12.1636L15.0511 20.4001L15.0902 20.4634C16.1138 20.5849 16.9771 20.7228 17.6801 20.8747C18.3857 21.0254 18.9309 21.1557 19.3171 21.2646L19.384 21.2253L19.8207 15.6535L19.9343 15.1168C20.0656 14.7257 20.2865 14.3826 20.5957 14.0877C20.8141 13.8826 21.2268 13.6333 21.8364 13.3383C22.2895 13.0067 22.5798 12.7523 22.7072 12.5751C23.0442 12.2447 23.3446 11.7928 23.6059 11.2194C24.083 10.2283 24.1271 9.02072 23.7371 7.59403C23.2449 6.41812 22.5861 5.58145 21.7619 5.08145C21.2482 4.70806 20.5048 4.45236 19.5342 4.31691C19.225 4.28906 18.9284 4.2878 18.6444 4.31185C18.2607 4.33843 17.8341 4.43083 17.3608 4.58652C17.2813 4.59918 17.2005 4.58399 17.1185 4.54349C17.0251 4.48653 16.9657 4.41817 16.938 4.33969C16.7739 3.51692 16.5669 2.91949 16.3195 2.5448C16.0519 2.07014 15.7162 1.64989 15.3136 1.28408C14.4616 0.489179 13.3459 0.0613333 11.9665 0.000575627Z" fill="#562622"/>
<path d="M11.9448 21.095H11.8199C11.2835 21.095 10.7344 21.114 10.1728 21.152L9.74995 21.1836C9.46597 21.2064 9.17821 21.2355 8.8879 21.2672C8.59761 21.3001 8.30479 21.338 8.00817 21.3798C6.81923 21.557 5.71359 21.7874 4.69373 22.0697L4.63693 22.1418L4.71771 23.1747L4.76062 23.3582C4.83383 23.5772 4.98528 23.7468 5.21246 23.8658C5.35003 23.9304 5.50149 23.9582 5.66681 23.9481C6.85323 23.7127 8.12799 23.538 9.49112 23.4253C10.5034 23.3595 11.4096 23.3304 12.2085 23.338C12.9191 23.3316 13.9263 23.3886 15.2288 23.5089C15.865 23.5785 16.3837 23.6456 16.7863 23.7101C17.4174 23.8101 17.9336 23.9038 18.335 23.9886C18.3665 23.9949 18.4107 23.9987 18.4637 24C18.6013 23.9975 18.7237 23.9658 18.8297 23.9063C18.9181 23.8785 19.0241 23.7582 19.1478 23.5481L19.2071 23.3253L19.298 22.1393L19.2589 22.0836C18.1949 21.7912 17.1221 21.5646 16.0404 21.4013C15.5002 21.3203 14.9575 21.2545 14.4122 21.2064L13.5931 21.1443C13.0453 21.1114 12.4964 21.095 11.9448 21.095Z" fill="#562622"/>
</svg>
