<svg width="14" height="24" viewBox="0 0 14 24" fill="none" xmlns="http://www.w3.org/2000/svg">
<path d="M7.55994 0.27907C7.55994 0.393534 7.34119 0.558141 6.99994 0.558141C6.65869 0.558141 6.43994 0.393534 6.43994 0.27907C6.43994 0.164607 6.65869 0 6.99994 0C7.34119 0 7.55994 0.164607 7.55994 0.27907Z" fill="#562622"/>
<path d="M7.55994 1.00519V2.81588C7.3751 2.79953 7.18807 2.79081 6.99994 2.79081C6.81181 2.79081 6.6248 2.79953 6.43994 2.81588V1.00519C6.6051 1.07496 6.79322 1.11638 6.99994 1.11638C7.20667 1.11638 7.3948 1.07496 7.55994 1.00519Z" fill="#562622"/>
<path d="M7.55994 3.37728V10.0412C7.37838 10.0445 7.19026 10.0467 6.99994 10.0467C6.80963 10.0467 6.62149 10.0434 6.43994 10.0412V3.37728C6.62479 3.36093 6.80963 3.34894 6.99994 3.34894C7.19026 3.34894 7.37509 3.35984 7.55994 3.37728Z" fill="#562622"/>
<path d="M12.6143 7.47938C11.3882 7.04442 9.7356 6.79262 8.12 6.7152V3.46124C10.2539 3.87441 11.9787 5.43661 12.6143 7.47938Z" fill="#562622"/>
<path d="M5.88002 3.45992V6.71388C4.26456 6.79237 2.61186 7.0431 1.38574 7.47588C2.0212 5.43627 3.74606 3.87322 5.88002 3.45992Z" fill="#562622"/>
<path d="M5.87993 7.27538V10.0214C3.42447 9.90364 1.77513 9.42726 1.12329 9.05554C1.13204 8.74594 1.17142 8.44399 1.22392 8.1453C2.25205 7.71578 3.87518 7.36915 5.88004 7.27429L5.87993 7.27538Z" fill="#562622"/>
<path d="M12.8766 9.05555C12.2248 9.42619 10.5754 9.90368 8.12 10.0214V7.27539C10.1249 7.37023 11.7491 7.71579 12.7761 8.14858C12.8297 8.444 12.8679 8.74595 12.8766 9.05555Z" fill="#562622"/>
<path d="M14 9.19844C14 10.1218 11.1244 11.1519 7 11.1519C2.8756 11.1519 0 10.1218 0 9.19844C0 8.95535 0.215468 8.70136 0.604856 8.45935C0.576419 8.7079 0.560011 8.95643 0.560011 9.21044C0.560011 9.30201 0.604856 9.38922 0.680324 9.43937C1.49846 10.0008 3.82164 10.6058 6.99992 10.6058C10.1782 10.6058 12.5014 9.99968 13.3195 9.43937C13.395 9.38922 13.4398 9.3031 13.4398 9.21044C13.4398 8.95644 13.4234 8.70789 13.395 8.46262C13.7844 8.70244 13.9998 8.95643 13.9998 9.19953L14 9.19844Z" fill="#562622"/>
<path d="M14 10.1947V10.8728C14 11.7961 11.1244 12.8263 7 12.8263C2.8756 12.8263 0 11.7961 0 10.8728V10.1947C1.20641 11.1856 4.16948 11.71 7 11.71C9.83052 11.71 12.7935 11.1856 14 10.1947Z" fill="#562622"/>
<path d="M13.2081 12.3489L13.0342 13.487C11.7458 14.1116 9.45861 14.4997 6.99993 14.4997C4.54125 14.4997 2.25421 14.1116 0.965653 13.487L0.791748 12.3489C2.24752 13.0269 4.67031 13.3845 6.99991 13.3845C9.32951 13.3845 11.7513 13.0269 13.2081 12.3489Z" fill="#562622"/>
<path d="M10.8534 22.9393L10.7221 23.5084C9.82309 23.8267 8.51059 24 7.00122 24C5.49185 24 4.17938 23.8267 3.2803 23.5084L3.14905 22.9393C4.20232 23.2969 5.65264 23.4419 7.00241 23.4419C8.35209 23.4419 9.80241 23.2969 10.8558 22.9393H10.8534Z" fill="#562622"/>
<path d="M7.00001 15.0589C4.63096 15.0589 2.47185 14.721 1.06653 14.1432L2.23138 21.6868C2.46654 22.2864 4.16624 22.8838 7.00006 22.8838C9.83389 22.8838 11.5335 22.2864 11.7687 21.6868L12.9336 14.1432C11.5281 14.721 9.36909 15.0589 7.00001 15.0589ZM3.92001 21.7675C3.30096 21.7675 2.80001 21.2682 2.80001 20.6512C2.80001 20.0342 3.30096 19.5349 3.92001 19.5349C4.53906 19.5349 5.04001 20.0342 5.04001 20.6512C5.04001 21.2682 4.53906 21.7675 3.92001 21.7675ZM4.48001 18.4187C4.48001 17.8017 4.98096 17.3024 5.60001 17.3024C6.21906 17.3024 6.72001 17.8017 6.72001 18.4187C6.72001 19.0357 6.21906 19.5349 5.60001 19.5349C4.98096 19.5349 4.48001 19.0357 4.48001 18.4187ZM7.28001 22.3257C6.66096 22.3257 6.16001 21.8264 6.16001 21.2094C6.16001 20.5924 6.66096 20.0931 7.28001 20.0931C7.89906 20.0931 8.40001 20.5924 8.40001 21.2094C8.40001 21.8264 7.89906 22.3257 7.28001 22.3257ZM7.28001 18.4187C7.28001 17.8017 7.78096 17.3024 8.40001 17.3024C9.01906 17.3024 9.52001 17.8017 9.52001 18.4187C9.52001 19.0357 9.01906 19.5349 8.40001 19.5349C7.78096 19.5349 7.28001 19.0357 7.28001 18.4187ZM10.08 21.7675C9.46096 21.7675 8.96001 21.2682 8.96001 20.6512C8.96001 20.0342 9.46096 19.5349 10.08 19.5349C10.6991 19.5349 11.2 20.0342 11.2 20.6512C11.2 21.2682 10.6991 21.7675 10.08 21.7675Z" fill="#562622"/>
<path d="M8.95997 18.4186C8.95997 19.1632 7.83997 19.1632 7.83997 18.4186C7.83997 17.6741 8.95997 17.6741 8.95997 18.4186Z" fill="#562622"/>
<path d="M6.16004 18.4186C6.16004 19.1632 5.04004 19.1632 5.04004 18.4186C5.04004 17.6741 6.16004 17.6741 6.16004 18.4186Z" fill="#562622"/>
<path d="M4.47999 20.6512C4.47999 21.3958 3.35999 21.3958 3.35999 20.6512C3.35999 19.9066 4.47999 19.9066 4.47999 20.6512Z" fill="#562622"/>
<path d="M7.83997 21.2094C7.83997 21.9539 6.71997 21.9539 6.71997 21.2094C6.71997 20.4648 7.83997 20.4648 7.83997 21.2094Z" fill="#562622"/>
<path d="M10.64 20.6512C10.64 21.3958 9.52002 21.3958 9.52002 20.6512C9.52002 19.9066 10.64 19.9066 10.64 20.6512Z" fill="#562622"/>
</svg>
