<svg width="24" height="21" viewBox="0 0 24 21" fill="none" xmlns="http://www.w3.org/2000/svg">
<path d="M8.33518 11.9521C8.14074 11.1957 7.93914 9.80138 8.62582 8.61112C9.22654 7.57132 10.3666 6.93032 12.0161 6.70566C13.7313 6.47172 14.9419 5.51848 15.6163 3.87069C16.041 2.83088 16.1085 1.83434 16.1187 1.52726C14.991 0.57504 13.5388 0 11.9546 0C8.37694 0 5.46738 2.93074 5.46738 6.53262C5.4684 8.7864 6.60639 10.7774 8.33476 11.9522L8.33518 11.9521ZM11.9558 1.55193C12.7908 1.55193 13.4703 2.23621 13.4703 3.0771C13.4703 3.91799 12.7908 4.60227 11.9558 4.60227C11.1207 4.60227 10.4412 3.91799 10.4412 3.0771C10.4412 2.23621 11.1207 1.55193 11.9558 1.55193Z" fill="#562622"/>
<path d="M18.444 6.53251C18.444 4.71878 17.7062 3.07599 16.517 1.89093C16.473 2.37735 16.3502 3.18527 16.0043 4.03032C15.2798 5.8018 13.9208 6.87162 12.0725 7.12304C10.5579 7.32915 9.52023 7.90109 8.9882 8.82239C8.20328 10.1827 8.74464 11.917 8.87256 12.2797C9.79052 12.7805 10.8405 13.066 11.955 13.066C15.5337 13.066 18.4443 10.1353 18.4443 6.53233L18.444 6.53251ZM11.9558 11.5585C11.1207 11.5585 10.4412 10.8742 10.4412 10.0333C10.4412 9.19241 11.1208 8.50813 11.9558 8.50813C12.7908 8.50813 13.4704 9.19241 13.4704 10.0333C13.4714 10.8742 12.7919 11.5585 11.9558 11.5585Z" fill="#562622"/>
<path d="M5.76042 11.9149C5.59464 11.7284 5.36643 11.6171 5.11775 11.6026C4.86908 11.5882 4.62961 11.6727 4.44439 11.8397C4.06881 12.1777 4.02891 12.7558 4.35023 13.1423L5.4739 15.4321C5.33574 15.6032 5.12596 15.6609 4.83532 15.6083C3.97571 15.4527 2.7313 14.3305 2.50308 13.2443C2.21758 11.884 2.41405 7.65667 2.4161 7.6134V7.60515C2.42224 6.97448 1.91875 6.45713 1.29244 6.44993C0.990554 6.44478 0.702978 6.56329 0.487053 6.77661C0.272147 6.98787 0.152424 7.27024 0.146268 7.57115C0.115566 7.8906 -0.355191 12.901 0.57403 14.7807C1.4705 16.5924 5.16473 18.8369 5.85347 19.244L5.85859 20.698C5.85859 20.8124 5.94967 20.9062 6.06326 20.9083L9.99901 21H10.0041C10.0584 21 10.1106 20.9783 10.1505 20.9402C10.1904 20.9011 10.2139 20.8464 10.2139 20.7908L10.2446 16.986C10.2446 16.9335 10.2262 16.8819 10.1904 16.8428L5.76042 11.9149Z" fill="#562622"/>
<path d="M23.8534 7.42895C23.8482 7.12701 23.7275 6.84568 23.5126 6.63339C23.2987 6.42213 23.0173 6.3067 22.7185 6.3067H22.7062C22.0799 6.31288 21.5764 6.83125 21.5825 7.46193V7.47017C21.5846 7.51242 21.781 11.7398 21.4955 13.1011C21.2673 14.1883 20.0229 15.3095 19.1633 15.4651C18.8767 15.5166 18.6629 15.4579 18.5247 15.2889L19.6484 12.999C19.8009 12.8156 19.8776 12.5848 19.8643 12.3446C19.85 12.0942 19.7405 11.8644 19.5552 11.6975C19.1725 11.3533 18.582 11.3862 18.2402 11.7706L13.8101 16.7016C13.7753 16.7408 13.7559 16.7923 13.7559 16.8449L13.7866 20.6496C13.7866 20.7063 13.8101 20.7599 13.85 20.7991C13.8889 20.8372 13.9411 20.8588 13.9964 20.8588H14.0015L17.9372 20.7671C18.0508 20.764 18.1419 20.6713 18.1419 20.5569L18.147 19.1028C18.8358 18.6957 22.53 16.4522 23.4265 14.6406C24.3547 12.7589 23.8851 7.74843 23.8534 7.42895Z" fill="#562622"/>
</svg>
