<svg width="36" height="49" viewBox="0 0 36 49" fill="none" xmlns="http://www.w3.org/2000/svg">
<path d="M17.1096 40.3374C17.9091 42.1908 18.7348 44.1065 16.3372 48.2477C16.2914 48.3265 16.2075 48.3716 16.1213 48.3713C16.0782 48.3711 16.0376 48.3614 15.997 48.3373C15.8776 48.2674 15.8375 48.1165 15.9073 47.9971C18.1796 44.0732 17.4394 42.3541 16.6541 40.5316C16.0254 39.0762 15.3753 37.5705 16.4385 34.98C17.1779 33.1781 16.7274 32.0465 16.1561 30.6154C15.625 29.2824 15.0276 27.7722 15.257 25.389C15.0917 25.4482 14.8997 25.56 14.6022 25.7407L14.5015 25.8026C14.2352 25.9643 14.0963 25.9781 14.0439 25.8918C13.9345 25.7118 14.0947 25.1548 14.2742 24.5307C14.4683 23.8564 14.6842 23.1033 14.6119 22.6171C14.8105 22.6346 15.0115 22.645 15.2149 22.6458C15.4926 22.6469 15.7679 22.6312 16.0409 22.6011C16.0714 22.7784 16.1897 23.1307 16.3269 23.5429C16.6156 24.4082 16.9943 25.5442 16.8447 25.8285C16.8134 25.8858 16.7463 25.8951 16.6293 25.8324C16.4955 25.7625 16.3952 25.7094 16.3068 25.6612C16.0656 25.531 15.8984 25.4418 15.7525 25.391C15.5211 27.6832 16.1019 29.1455 16.6164 30.4353C17.2043 31.9096 17.7117 33.185 16.8974 35.1733C15.9164 37.5703 16.4952 38.9154 17.1097 40.3396L17.1096 40.3374ZM1.42027 13.4516C1.43454 13.4756 1.46563 13.4829 1.48723 13.4686C1.49443 13.4639 1.50163 13.4591 1.50405 13.4519L1.55945 13.3612C2.22436 12.2436 2.81218 11.2573 4.25074 11.2629C4.27707 11.263 4.30109 11.2415 4.3012 11.2128L4.19898 8.54114C4.19908 8.51481 4.17522 8.49318 4.14889 8.49308C3.03589 8.48875 2.06311 8.74827 1.38823 9.33446C0.783004 9.86349 0.420943 10.6519 0.416709 11.753C0.416673 11.7626 0.41902 11.7746 0.426173 11.7818L1.41788 13.4516L1.42027 13.4516ZM1.89839 17.9654C1.88638 17.975 1.87915 17.9893 1.87908 18.006L1.86968 20.4523C1.86958 20.4786 1.89103 20.5026 1.91975 20.5027C1.92693 20.5028 1.93412 20.5004 1.94131 20.498C3.037 20.0331 3.28349 20.0389 4.08289 20.0587C4.26239 20.0642 4.46823 20.0674 4.70039 20.0683C4.72672 20.0684 4.75074 20.047 4.75085 20.0183L4.64649 17.9019C4.64656 17.8852 4.63704 17.8708 4.62271 17.8611C4.19535 17.577 3.7531 17.4245 3.30067 17.4323C2.84585 17.4401 2.37851 17.6082 1.89839 17.9654ZM3.00668 24.8057C2.84897 25.358 2.7058 25.8649 2.4904 26.4816C3.53361 26.5814 4.42276 26.908 5.21316 27.4018C6.00594 27.9003 6.6999 28.5684 7.35032 29.3561C7.72437 29.1876 8.01468 29.0044 8.23328 28.8066C8.60558 28.4706 8.76019 28.1002 8.73294 27.7171L8.73297 27.7099L8.73064 27.6931C8.69626 27.2957 8.47045 26.8831 8.09859 26.4771C7.17378 25.4658 5.34636 24.5037 3.25649 23.9402C3.16434 24.251 3.08186 24.5356 3.00422 24.8081L3.00668 24.8057ZM28.5609 12.3145C29.2174 11.5344 29.9141 10.8692 30.7131 10.3769C31.5048 9.88924 32.3965 9.56958 33.4428 9.47787C33.2346 8.85952 33.0929 8.35154 32.9394 7.79799C32.8639 7.52483 32.786 7.23968 32.6938 6.92814C30.5997 7.47532 28.765 8.42322 27.8324 9.42735C27.4574 9.83041 27.2308 10.2436 27.191 10.6384L27.1886 10.6552L27.1885 10.6624C27.1583 11.0452 27.3101 11.4168 27.6798 11.7557C27.8969 11.9528 28.1858 12.1407 28.5585 12.312L28.5609 12.3145ZM1.89209 33.2459C2.05957 32.6409 3.19456 32.5328 4.53309 32.4016C5.75907 32.2843 7.15743 32.1485 8.12177 31.6113C8.62411 31.0723 8.87052 30.4772 8.94482 29.8312C9.00919 29.2738 8.94685 28.6799 8.80806 28.0474C8.74949 28.3392 8.58564 28.621 8.29741 28.8808C8.06683 29.0882 7.7573 29.2833 7.35932 29.4588C7.35452 29.4612 7.35212 29.4636 7.34733 29.4636C6.60168 29.7934 5.54744 30.0598 4.12976 30.2338C2.36006 30.4519 1.13295 30.8636 0.544643 31.34C0.369367 31.4806 0.253915 31.6261 0.198304 31.7719C0.18616 31.8174 0.173998 31.8676 0.161819 31.9226L0.159371 31.9369C0.144237 32.1379 0.243982 32.3418 0.463438 32.5389C0.744914 32.7913 1.21554 33.0325 1.88969 33.2434L1.89209 33.2459ZM27.7692 14.5664C28.7293 15.1111 30.129 15.2578 31.3517 15.3846C32.6892 15.5238 33.8233 15.6431 33.9861 16.2493C34.6643 16.0437 35.1367 15.8062 35.4177 15.5559C35.6387 15.3581 35.74 15.1551 35.7264 14.9563L35.7241 14.942C35.7123 14.8869 35.7005 14.8366 35.6888 14.791C35.6343 14.6448 35.5175 14.4984 35.3457 14.3565C34.7612 13.8755 33.5373 13.4543 31.7692 13.2224C30.3553 13.0374 29.3032 12.7628 28.5577 12.4272C28.5529 12.4272 28.5505 12.4248 28.5457 12.4224C28.1491 12.2437 27.8411 12.0463 27.6121 11.8371C27.3259 11.5751 27.1618 11.2944 27.1079 10.9998C26.9642 11.6311 26.8973 12.2269 26.9574 12.7825C27.0267 13.429 27.2686 14.0259 27.7668 14.5689L27.7692 14.5664ZM27.9828 27.483C27.6305 28.2213 27.8363 28.8684 28.9907 29.3013C29.029 28.04 29.9649 27.4309 30.9535 26.7884C31.4814 26.4458 32.0237 26.0913 32.4468 25.6262C32.5652 25.3466 32.5455 24.863 32.454 24.3767C32.379 23.9743 32.2561 23.5693 32.1231 23.2768C32.0596 23.626 31.67 24.096 30.7795 24.7388C29.5097 25.6554 28.3882 26.6325 27.9828 27.483ZM31.9449 22.9602C31.9353 22.9458 31.933 22.929 31.9378 22.9147C31.64 22.5569 30.7286 22.4217 29.8817 22.2939C29.6975 22.2669 29.5157 22.2398 29.3411 22.2104C29.1784 22.1835 29.011 22.1541 28.8412 22.1199C28.2528 22.0028 27.6143 21.8423 27.0527 21.6223C26.8758 21.5522 26.7061 21.4773 26.5485 21.3977C26.0373 21.1325 25.658 20.8007 25.5566 20.3934C25.4712 20.8239 25.4262 21.3025 25.4699 21.7622C25.516 22.2267 25.6532 22.6701 25.9342 23.023C26.4133 23.5491 27.2674 23.6626 28.222 23.7907C29.1024 23.909 30.0665 24.0372 30.924 24.5073C31.8218 23.8286 32.1012 23.3797 32.021 23.0754C31.9948 23.0322 31.9711 22.9938 31.9449 22.9602ZM26.523 5.00357C26.5493 5.00367 26.5709 4.98221 26.5734 4.95589L26.6938 2.29225L26.6938 2.28507C26.6939 2.25874 26.6725 2.23472 26.6437 2.23461C25.2052 2.22903 24.625 1.2382 23.9687 0.115463L23.914 0.0242916C23.9092 0.0170922 23.9044 0.0122869 23.8973 0.00747217C23.8734 -0.00698248 23.8422 7.74174e-05 23.8302 0.0239663L22.8257 1.68604C22.8209 1.69321 22.816 1.70516 22.816 1.71473C22.8118 2.81579 23.1677 3.60702 23.7689 4.14074C24.4392 4.73456 25.41 4.99925 26.523 5.00357ZM35.7829 15.2341C35.7298 15.3679 35.6311 15.5016 35.487 15.6302C35.1892 15.8948 34.6879 16.1442 33.9714 16.3592C33.9666 16.3616 33.9642 16.3616 33.9594 16.3639C33.473 16.508 32.886 16.6374 32.1987 16.7425C31.8777 16.7915 29.37 17.2006 27.5402 18.1174C26.5761 18.5996 25.803 19.2213 25.6468 20.001L25.6419 20.0297C25.5513 20.5679 25.9661 20.9884 26.592 21.3116C26.733 21.3839 26.8835 21.4515 27.0412 21.5144C27.515 20.3242 29.7909 19.7945 31.9615 19.2906C33.3486 18.9681 34.6902 18.6573 35.4771 18.196C35.7175 17.9169 35.8295 17.4219 35.8651 16.8835C35.9032 16.3116 35.8554 15.6939 35.7829 15.2341ZM8.669 38.6147C8.87514 38.5389 9.07173 38.4559 9.24921 38.3657C9.87753 38.0473 10.2956 37.6301 10.2092 37.0912L10.2045 37.0625C10.0543 36.2816 9.28597 35.6538 8.32564 35.1643C6.50287 34.2356 3.99845 33.8046 3.67787 33.7532C2.98894 33.6404 2.40542 33.5089 1.92007 33.361C1.91528 33.3609 1.9129 33.3585 1.90812 33.3561C1.19326 33.1355 0.693979 32.8823 0.398182 32.6154C0.255062 32.4856 0.157437 32.3536 0.105301 32.217C0.0293361 32.6762 -0.0233031 33.2936 0.0103986 33.8658C0.0418375 34.4045 0.15004 34.9004 0.388317 35.1813C1.16682 35.6463 2.47246 35.9745 3.81881 36.3124C5.95902 36.8497 8.20448 37.4137 8.669 38.6147ZM31.49 31.6253C31.3688 31.407 31.2741 31.1266 31.2083 30.8248C31.133 30.4846 31.0937 30.1134 31.0927 29.7568C30.7672 29.7555 30.1664 29.7436 29.4251 29.542C29.2793 29.5032 29.1454 29.462 29.0211 29.416L29.0163 29.4136C28.3709 29.1837 27.9915 28.8926 27.8228 28.5545C27.8146 28.8225 27.8348 29.1768 27.8718 29.524C27.9318 30.1011 28.0278 30.6448 28.085 30.7145L28.0898 30.7217C28.2872 31.036 28.7938 31.2702 29.3844 31.4256C30.097 31.6103 30.9249 31.6758 31.4876 31.6229L31.49 31.6253ZM24.0694 33.5593C24.2489 33.5647 24.4547 33.5679 24.6869 33.5688C24.7132 33.5689 24.7372 33.5475 24.7373 33.5188L24.633 31.4024C24.6331 31.3857 24.6235 31.3713 24.6092 31.3616C24.1795 31.0775 23.7396 30.925 23.2872 30.9328C22.8323 30.9406 22.365 31.1088 21.8848 31.466C21.8728 31.4755 21.8656 31.4898 21.8655 31.5066L21.8561 33.9528C21.856 33.9791 21.8775 34.0032 21.9062 34.0033C21.9134 34.0033 21.9206 34.0009 21.9278 33.9986C23.0234 33.5337 23.27 33.5394 24.0694 33.5593ZM33.1007 34.7289C31.9877 34.7246 31.0149 34.9841 30.34 35.5703C29.7348 36.0993 29.3727 36.8878 29.3685 37.9888C29.3684 38.0008 29.3708 38.0104 29.378 38.0176L30.3697 39.6874C30.3839 39.7114 30.415 39.7187 30.4366 39.7044C30.4438 39.6997 30.451 39.6949 30.4534 39.6878L30.5088 39.597C31.1738 38.4794 31.7616 37.4931 33.2001 37.4987C33.2265 37.4988 33.2505 37.4774 33.2506 37.4486L33.1484 34.777C33.1485 34.7506 33.1246 34.729 33.0983 34.7289L33.1007 34.7289ZM26.1209 40.4034C25.0253 40.8683 24.7788 40.8625 23.9794 40.8427C23.7999 40.8372 23.594 40.834 23.3619 40.8331C23.3355 40.833 23.3115 40.8544 23.3114 40.8832L23.4158 42.9995C23.4157 43.0162 23.4252 43.0306 23.4395 43.0403C23.8693 43.3244 24.3092 43.4769 24.7616 43.4691C25.2164 43.4613 25.6838 43.2931 26.1639 42.936C26.1759 42.9264 26.1832 42.9121 26.1832 42.8953L26.1926 40.4491C26.1927 40.4228 26.1713 40.3988 26.1426 40.3987C26.1354 40.3986 26.1281 40.401 26.1209 40.4034ZM23.6636 12.1706C23.6525 15.0453 22.6994 17.6458 21.1675 19.5239C19.6379 21.3993 17.5319 22.5544 15.2126 22.5454C12.8933 22.5364 10.7962 21.365 9.28107 19.4777C7.7636 17.5881 6.83059 14.9802 6.84164 12.1053C6.85153 9.53221 7.75758 6.70648 9.43145 4.65435C10.8552 2.90774 12.8369 1.72343 15.2927 1.73297C17.6121 1.74197 19.7091 2.91339 21.2242 4.8007C22.7416 6.69034 23.6747 9.29821 23.6636 12.1731L23.6636 12.1706ZM21.9082 10.5218C22.0235 10.4073 22.0914 10.1994 22.0876 9.93125C22.0838 9.67752 22.0394 9.38054 21.9617 9.06187C21.7566 8.22808 21.3224 7.24021 20.8204 6.46275C20.3135 5.67571 19.7341 5.10139 19.2458 5.10666C19.2003 5.10649 19.1548 5.11349 19.1117 5.1229C19.0278 5.14411 19.0061 5.20626 19.032 5.3045C19.0626 5.43148 19.1815 5.6354 19.3385 5.90649C19.6642 6.46786 20.1612 7.3267 20.3918 8.35446C20.6602 9.53556 21.0095 10.188 21.3172 10.462C21.4293 10.5606 21.5392 10.6137 21.6374 10.6213C21.7426 10.6312 21.8337 10.5957 21.9082 10.5218ZM6.75984 46.4505C6.75744 46.4505 6.75744 46.4505 6.75504 46.4529C6.63041 46.4955 6.49621 46.5356 6.35005 46.5758C5.6073 46.7715 5.00646 46.7788 4.6809 46.7775C4.67714 47.1341 4.63263 47.505 4.55712 47.8446C4.48893 48.1483 4.39212 48.4256 4.26921 48.6429C4.83149 48.7002 5.65988 48.6412 6.37389 48.462C6.96568 48.3135 7.47164 48.0833 7.6739 47.7682L7.67871 47.761C7.73643 47.6918 7.83666 47.1465 7.9011 46.5722C7.94073 46.2253 7.96364 45.8712 7.95749 45.6031C7.78625 45.9399 7.40695 46.228 6.75743 46.4529L6.75984 46.4505ZM6.79139 46.3357C7.94912 45.9118 8.15749 45.2663 7.81321 44.5254C7.41437 43.6717 6.30033 42.686 5.03768 41.7595C4.15216 41.1098 3.76383 40.6368 3.70531 40.2871C3.57015 40.5786 3.44412 40.9826 3.36598 41.3845C3.27077 41.87 3.24736 42.3534 3.36357 42.6339C3.78305 43.1023 4.32261 43.4611 4.84789 43.8078C5.83157 44.4579 6.76273 45.0742 6.79139 46.3357ZM9.29432 38.4537C9.09766 38.5534 8.88428 38.6436 8.65417 38.7241C8.12684 38.9135 7.53987 39.0548 6.99853 39.1581C6.82846 39.1909 6.6584 39.219 6.49793 39.2447C6.32309 39.2727 6.14108 39.2983 5.95667 39.3239C5.10889 39.4427 4.19403 39.5708 3.89583 39.9287C3.90057 39.9431 3.89811 39.9598 3.88848 39.9742C3.86202 40.0076 3.83794 40.0458 3.81144 40.0887C3.7265 40.3924 4.00482 40.8411 4.89736 41.5292C5.75842 41.0658 6.72355 40.945 7.60483 40.8336C8.56034 40.7128 9.41525 40.606 9.8984 40.0837C10.1822 39.7306 10.3227 39.2883 10.3724 38.8265C10.4196 38.3671 10.3784 37.8883 10.2963 37.4571C10.1942 37.866 9.81231 38.1924 9.29908 38.4537L9.29432 38.4537Z" fill="#562622"/>
</svg>
