<svg width="48" height="59" viewBox="0 0 48 59" fill="none" xmlns="http://www.w3.org/2000/svg">
<path d="M44.4209 51.5562C44.4209 53.9966 39.192 59 22.2104 59C5.34849 59 0 53.9963 0 51.5562C0 51.1106 0.333975 50.7469 0.95346 50.4474C0.683223 50.6958 0.540455 50.9544 0.540455 51.2156C0.540455 53.3974 10.2434 55.1668 22.2131 55.1668C34.1827 55.1668 43.8857 53.3974 43.8857 51.2156C43.8857 50.9518 43.7404 50.6958 43.4727 50.4474C44.0846 50.747 44.4209 51.1106 44.4209 51.5562ZM28.7441 29.9792C28.1909 29.9536 27.625 29.928 27.0462 29.9101C26.544 29.8947 26.0315 29.8793 25.5114 29.8691C24.9633 29.8589 24.405 29.8512 23.839 29.8461C23.5585 29.8435 23.2781 29.8435 22.9951 29.8435C22.7121 29.8435 22.4317 29.8435 22.1512 29.8461C21.5853 29.8486 21.0295 29.8563 20.4788 29.8691C19.9587 29.8793 19.4463 29.8921 18.944 29.9101C18.3653 29.928 17.7968 29.951 17.2461 29.9792C11.2804 30.266 6.9642 30.9907 6.62743 31.8486C6.62488 31.8563 6.62488 31.864 6.62233 31.8716C6.61468 31.8998 6.60448 31.928 6.60448 31.9587C6.60448 33.1264 13.9416 34.0714 22.9919 34.0714C32.0423 34.0714 39.3794 33.1264 39.3794 31.9587C39.3794 31.9305 39.3717 31.9024 39.3616 31.8716C39.359 31.864 39.359 31.8563 39.3565 31.8486C39.025 30.9907 34.7074 30.2686 28.7441 29.9792ZM48 39.0187C48 41.2286 46.5214 43.9456 42.1669 45.3847C39.5461 46.2502 37.5015 46.788 36.2829 47.0799C34.9444 49.3692 33.1598 51.5817 30.7659 53.4306C30.7659 53.4306 28.864 54.0477 22.9928 54.0477C17.1215 54.0477 15.2197 53.4306 15.2197 53.4306C7.19667 47.2336 5.95794 36.9493 5.7765 33.2978C6.58213 34.0251 8.26728 34.4911 11.2272 34.8727C14.3808 35.2798 18.5617 35.5026 22.9978 35.5026C27.4339 35.5026 31.6148 35.2798 34.7684 34.8727C37.7257 34.4911 39.4109 34.0276 40.2165 33.2978C40.1783 34.0712 40.0916 35.1365 39.9055 36.4015C40.4944 35.5974 41.5524 34.6755 43.3243 34.6755C46.4575 34.6755 48 36.8087 48 39.0187ZM44.3136 37.7588C43.5334 36.8292 40.8005 37.2799 39.3473 39.2798C38.9572 40.9187 38.3963 42.7087 37.5933 44.5141C38.9623 44.299 40.6755 43.8381 42.2128 42.8444C45.4175 40.7779 45.2211 38.8419 44.3136 37.7588ZM25.7332 6.25341C27.4183 15.6921 21.7153 15.1545 25.8428 21.9277H25.8403C25.7026 14.8471 31.7932 15.0726 25.7306 6.25341H25.7332ZM22.5285 0C22.5285 0 24.2494 3.20606 20.5272 8.40684C16.8051 13.6052 17.394 17.2824 18.9083 19.8968C20.4227 22.5113 23.6401 25.4075 23.505 28.6084C23.505 28.6084 24.591 25.638 22.6382 20.7339C20.7593 16.0144 22.6688 12.8699 23.5534 10.7137C24.4381 8.56011 25.7739 3.34989 22.5285 0Z" fill="#562622"/>
</svg>
