<svg width="54" height="51" viewBox="0 0 54 51" fill="none" xmlns="http://www.w3.org/2000/svg">
<path d="M40.25 43.0859C41.8413 43.0859 43.3674 43.7156 44.4926 44.8364C45.6179 45.9573 46.25 47.4774 46.25 49.0625C46.25 47.4774 46.8821 45.9573 48.0074 44.8364C49.1326 43.7156 50.6587 43.0859 52.25 43.0859C50.6587 43.0859 49.1326 42.4563 48.0074 41.3354C46.8821 40.2146 46.25 38.6945 46.25 37.1094C46.25 38.6945 45.6179 40.2146 44.4926 41.3354C43.3674 42.4563 41.8413 43.0859 40.25 43.0859ZM40.25 7.22656C41.8413 7.22656 43.3674 7.85623 44.4926 8.97706C45.6179 10.0979 46.25 11.618 46.25 13.2031C46.25 11.618 46.8821 10.0979 48.0074 8.97706C49.1326 7.85623 50.6587 7.22656 52.25 7.22656C50.6587 7.22656 49.1326 6.59689 48.0074 5.47607C46.8821 4.35524 46.25 2.83508 46.25 1.25C46.25 2.83508 45.6179 4.35524 44.4926 5.47607C43.3674 6.59689 41.8413 7.22656 40.25 7.22656ZM19.25 43.0859C19.25 38.3307 21.1464 33.7702 24.5221 30.4077C27.8977 27.0453 32.4761 25.1562 37.25 25.1562C32.4761 25.1562 27.8977 23.2672 24.5221 19.9048C21.1464 16.5423 19.25 11.9818 19.25 7.22656C19.25 11.9818 17.3536 16.5423 13.9779 19.9048C10.6023 23.2672 6.0239 25.1562 1.25 25.1562C6.0239 25.1562 10.6023 27.0453 13.9779 30.4077C17.3536 33.7702 19.25 38.3307 19.25 43.0859Z" fill="#562622" stroke="#56262C" stroke-width="2.5" stroke-linecap="round" stroke-linejoin="round"/>
</svg>
