<svg width="43" height="48" viewBox="0 0 43 48" fill="none" xmlns="http://www.w3.org/2000/svg">
<path d="M42.7738 16.6316C42.1055 14.1412 40.1284 12.2102 37.6162 11.5994C38.0718 9.319 37.2874 6.96787 35.5532 5.41428C33.819 3.86047 31.3906 3.3332 29.1666 4.02979C24.9459 -4.22594 12.7222 1.42364 16.3499 10.0135C11.6478 11.3337 10.4529 17.8489 14.39 20.7294C12.9265 22.1825 12.1722 24.2014 12.3269 26.2545C12.4817 28.3098 13.5304 30.1915 15.1958 31.411C16.8613 32.6284 18.9781 33.057 20.9894 32.5855C22.9987 32.114 24.7029 30.7895 25.6506 28.9591C27.2709 29.8271 29.1943 29.9214 30.892 29.2163C32.5897 28.5112 33.8791 27.0817 34.4013 25.3242C36.8082 25.8429 39.3139 25.0799 41.0201 23.3074C42.7264 21.5371 43.3906 19.0106 42.7738 16.6316Z" fill="#562622"/>
<path d="M9.54176 32.5686C4.00621 32.7401 4.01446 40.7646 9.54176 40.9357C15.0861 40.79 15.0861 32.7832 9.54176 32.5686Z" fill="#562622"/>
<path d="M2.97419 42.0677C1.33234 42.0677 0 43.3965 0 45.0338C0 46.6712 1.33239 48 2.97419 48C4.61598 48 5.94838 46.6712 5.94838 45.0338C5.94838 43.3965 4.61598 42.0677 2.97419 42.0677Z" fill="#562622"/>
</svg>
