<svg width="28" height="24" viewBox="0 0 28 24" fill="none" xmlns="http://www.w3.org/2000/svg">
<path d="M1.8071 9.90799L0.0378749 4.0678C-0.10956 3.54479 0.18531 2.99274 0.716077 2.84746C1.24684 2.70218 1.8071 2.99274 1.95453 3.51574L2.98658 6.91525C4.90324 2.8184 9.11989 0 13.9853 0C19.2045 0 23.657 3.25424 25.3967 7.78692C25.6326 8.42615 25.1609 9.12349 24.4827 9.12349C24.0698 9.12349 23.6865 8.86198 23.5391 8.48426C22.0942 4.67797 18.3493 1.94673 13.9853 1.94673C9.79809 1.94673 6.17118 4.44552 4.60837 8.04843L8.38271 6.91525C8.91348 6.76998 9.47374 7.06053 9.62117 7.58353C9.76861 8.10654 9.47374 8.65859 8.94297 8.80387L3.01607 10.5472C2.51479 10.6925 1.95453 10.4019 1.8071 9.90799Z" fill="#562622"/>
<path d="M26.0454 20.5133L25.0134 17.1138C23.0672 21.1816 18.8506 24 13.9852 24C8.76602 24 4.31347 20.7458 2.57374 16.2131C2.33784 15.5739 2.80963 14.8765 3.48783 14.8765C3.90065 14.8765 4.28399 15.138 4.43142 15.5157C5.87629 19.322 9.62114 22.0533 13.9852 22.0533C18.1724 22.0533 21.7993 19.5545 23.3621 15.9516L19.5878 17.0847C19.057 17.23 18.4968 16.9395 18.3493 16.4165C18.2019 15.8935 18.4967 15.3414 19.0275 15.1961L24.9544 13.4528C25.4852 13.3075 26.0454 13.5981 26.1929 14.1211L27.9621 19.9613C28.1095 20.4843 27.8147 21.0363 27.2839 21.1816C26.7531 21.3269 26.1929 21.0363 26.0454 20.5133Z" fill="#562622"/>
</svg>
