<svg width="48" height="48" viewBox="0 0 48 48" fill="none" xmlns="http://www.w3.org/2000/svg">
<path d="M24 40.8022C24.5879 40.8023 25.1553 41.0182 25.5946 41.4088C26.034 41.7994 26.3147 42.3377 26.3834 42.9216L26.4002 43.2024V45.6025C26.3996 46.2143 26.1653 46.8027 25.7453 47.2475C25.3254 47.6923 24.7514 47.96 24.1406 47.9959C23.5299 48.0317 22.9286 47.833 22.4594 47.4404C21.9903 47.0477 21.6888 46.4908 21.6165 45.8833L21.5997 45.6025V43.2024C21.5997 42.5658 21.8526 41.9553 22.3027 41.5052C22.7529 41.0551 23.3634 40.8022 24 40.8022Z" fill="#562622"/>
<path d="M39.1528 35.786L39.3785 35.9852L41.0587 37.6653C41.4891 38.0972 41.7391 38.6768 41.7577 39.2863C41.7763 39.8958 41.5622 40.4896 41.1589 40.9469C40.7555 41.4043 40.1932 41.691 39.5862 41.7489C38.9791 41.8067 38.3727 41.6313 37.8903 41.2583L37.6647 41.0591L35.9845 39.379C35.5703 38.9655 35.3214 38.415 35.2847 37.8309C35.248 37.2468 35.426 36.6695 35.7852 36.2074C36.1443 35.7453 36.66 35.4304 37.2351 35.3219C37.8102 35.2133 38.4051 35.3186 38.908 35.618L39.1528 35.786Z" fill="#562622"/>
<path d="M12.0155 35.9852C12.4288 36.3985 12.6771 36.9484 12.7137 37.5316C12.7504 38.1149 12.573 38.6916 12.2148 39.1534L12.0155 39.379L10.3354 41.0591C9.90341 41.4895 9.3238 41.7394 8.71425 41.7581C8.10471 41.7767 7.51093 41.5626 7.05352 41.1593C6.59612 40.756 6.30938 40.1937 6.25155 39.5867C6.19371 38.9796 6.36913 38.3733 6.74216 37.8909L6.94138 37.6653L8.62156 35.9852C9.07168 35.5352 9.68209 35.2825 10.3186 35.2825C10.955 35.2825 11.5654 35.5352 12.0155 35.9852Z" fill="#562622"/>
<path d="M4.79787 21.6012C5.40965 21.6019 5.99808 21.8361 6.44293 22.2561C6.88779 22.676 7.15549 23.25 7.19135 23.8607C7.2272 24.4714 7.0285 25.0727 6.63584 25.5418C6.24318 26.0109 5.6862 26.3124 5.0787 26.3847L4.79787 26.4015H2.39761C1.78583 26.4008 1.1974 26.1665 0.75254 25.7466C0.307685 25.3266 0.0399816 24.7527 0.00412854 24.142C-0.0317245 23.5313 0.166979 22.93 0.559638 22.4608C0.952298 21.9917 1.50928 21.6902 2.11677 21.618L2.39761 21.6012H4.79787Z" fill="#562622"/>
<path d="M45.6024 21.6012C46.2142 21.6019 46.8026 21.8361 47.2475 22.2561C47.6923 22.676 47.96 23.25 47.9959 23.8607C48.0317 24.4714 47.833 25.0727 47.4404 25.5418C47.0477 26.0109 46.4907 26.3124 45.8832 26.3847L45.6024 26.4015H43.2021C42.5904 26.4008 42.0019 26.1665 41.5571 25.7466C41.1122 25.3266 40.8445 24.7527 40.8087 24.142C40.7728 23.5313 40.9715 22.93 41.3642 22.4608C41.7568 21.9917 42.3138 21.6902 42.9213 21.618L43.2021 21.6012H45.6024Z" fill="#562622"/>
<path d="M10.1097 6.74439L10.3353 6.9436L12.0155 8.6237C12.446 9.05562 12.6959 9.6352 12.7145 10.2447C12.7332 10.8542 12.5191 11.448 12.1157 11.9053C11.7124 12.3627 11.1501 12.6495 10.543 12.7073C9.93594 12.7651 9.3296 12.5897 8.84717 12.2167L8.62154 12.0175L6.94136 10.3374C6.52873 9.9238 6.28112 9.37392 6.24496 8.79082C6.2088 8.20773 6.38656 7.63147 6.74493 7.17007C7.10329 6.70866 7.61765 6.3938 8.19158 6.28451C8.76551 6.17521 9.3596 6.27899 9.86248 6.57638L10.1097 6.74439Z" fill="#562622"/>
<path d="M41.0586 6.9436C41.4719 7.35689 41.7201 7.90676 41.7568 8.49005C41.7935 9.07335 41.6161 9.64998 41.2578 10.1118L41.0586 10.3374L39.3784 12.0175C38.9465 12.4479 38.3669 12.6979 37.7573 12.7165C37.1478 12.7351 36.554 12.521 36.0966 12.1177C35.6392 11.7144 35.3524 11.1521 35.2946 10.5451C35.2368 9.93801 35.4122 9.33171 35.7852 8.84931L35.9844 8.6237L37.6646 6.9436C38.1147 6.49365 38.7251 6.24088 39.3616 6.24088C39.9981 6.24088 40.6085 6.49365 41.0586 6.9436Z" fill="#562622"/>
<path d="M24 0C24.5879 7.75496e-05 25.1553 0.215907 25.5946 0.60655C26.034 0.997194 26.3147 1.53548 26.3834 2.11932L26.4002 2.40013V4.80027C26.3996 5.41201 26.1653 6.00041 25.7453 6.44524C25.3254 6.89007 24.7514 7.15776 24.1406 7.19361C23.5299 7.22946 22.9286 7.03077 22.4594 6.63813C21.9903 6.24549 21.6888 5.68855 21.6165 5.08108L21.5997 4.80027V2.40013C21.5997 1.76358 21.8526 1.15309 22.3027 0.702983C22.7529 0.25287 23.3634 0 24 0Z" fill="#562622"/>
<path d="M24 12.0007C26.3514 12.0005 28.6512 12.6912 30.6135 13.9868C32.5758 15.2824 34.1142 17.1259 35.0377 19.2883C35.9612 21.4508 36.2291 23.8369 35.808 26.1502C35.3869 28.4636 34.2955 30.6022 32.6693 32.3007C31.0431 33.9991 28.9537 35.1823 26.6607 35.7035C24.3677 36.2247 21.9721 36.0608 19.7715 35.2322C17.5709 34.4036 15.6621 32.9468 14.2824 31.0428C12.9027 29.1387 12.1127 26.8713 12.0106 24.5222L11.9986 24.0013L12.0106 23.4805C12.1449 20.3909 13.4667 17.4724 15.7004 15.3336C17.9341 13.1948 20.9073 12.0009 24 12.0007Z" fill="#562622"/>
</svg>
